<?xml version="1.0" encoding="UTF-8"?>
<!DOCTYPE svg PUBLIC "-//W3C//DTD SVG 1.1//EN" "http://www.w3.org/Graphics/SVG/1.1/DTD/svg11.dtd">
<svg xmlns="http://www.w3.org/2000/svg" version="1.1" width="331px" height="322px" style="shape-rendering:geometricPrecision; text-rendering:geometricPrecision; image-rendering:optimizeQuality; fill-rule:evenodd; clip-rule:evenodd" xmlns:xlink="http://www.w3.org/1999/xlink">
<g><path style="opacity:0.547" fill="#6e635b" d="M 156.5,0.5 C 156.5,0.166667 156.5,-0.166667 156.5,-0.5C 163.167,-0.5 169.833,-0.5 176.5,-0.5C 176.082,0.221579 175.416,0.721579 174.5,1C 170.848,1.49863 167.182,1.6653 163.5,1.5C 161.393,0.531782 159.059,0.198448 156.5,0.5 Z"/></g>
<g><path style="opacity:0.988" fill="#cfc4b6" d="M 155.5,0.5 C 155.833,0.5 156.167,0.5 156.5,0.5C 159.059,0.198448 161.393,0.531782 163.5,1.5C 160.713,2.47667 157.713,2.81 154.5,2.5C 152.801,2.66018 151.134,2.49351 149.5,2C 151.708,1.80912 153.708,1.30912 155.5,0.5 Z"/></g>
<g><path style="opacity:0.945" fill="#8e867e" d="M 155.5,0.5 C 153.708,1.30912 151.708,1.80912 149.5,2C 151.134,2.49351 152.801,2.66018 154.5,2.5C 152.735,3.46138 150.735,3.79472 148.5,3.5C 146.393,2.53178 144.059,2.19845 141.5,2.5C 145.919,1.02849 150.586,0.361822 155.5,0.5 Z"/></g>
<g><path style="opacity:0.686" fill="#6d6a65" d="M 230.5,6.5 C 229.833,6.5 229.167,6.5 228.5,6.5C 229.238,4.23977 230.238,4.0731 231.5,6C 231.272,6.39877 230.938,6.56544 230.5,6.5 Z"/></g>
<g><path style="opacity:1" fill="#d6cdba" d="M 141.5,2.5 C 144.059,2.19845 146.393,2.53178 148.5,3.5C 121.029,9.56774 96.0294,21.0677 73.5,38C 66.9695,43.3649 60.9695,49.1983 55.5,55.5C 54.791,54.596 53.791,54.2627 52.5,54.5C 52.6287,52.7839 52.962,51.1172 53.5,49.5C 77.3625,23.8979 106.696,8.23126 141.5,2.5 Z"/></g>
<g><path style="opacity:0.412" fill="#574d44" d="M 250.5,21.5 C 251.919,20.5489 253.585,20.2155 255.5,20.5C 255.5,23.1667 255.5,25.8333 255.5,28.5C 254.532,26.3926 254.198,24.0593 254.5,21.5C 253.167,21.5 251.833,21.5 250.5,21.5 Z"/></g>
<g><path style="opacity:0.914" fill="#8a8886" d="M 69.5,24.5 C 69.1583,23.6618 68.4916,23.3284 67.5,23.5C 75.1088,18.3553 83.1088,13.6886 91.5,9.5C 92.6956,9.84569 92.6956,10.3457 91.5,11C 83.9717,15.2602 76.6383,19.7602 69.5,24.5 Z"/></g>
<g><path style="opacity:1" fill="#e6d3ae" d="M 232.5,17.5 C 234.335,20.842 235.502,24.5086 236,28.5C 240.117,24.6913 244.951,22.358 250.5,21.5C 251.833,21.5 253.167,21.5 254.5,21.5C 254.198,24.0593 254.532,26.3926 255.5,28.5C 255.386,31.98 257.052,33.98 260.5,34.5C 260.082,35.2216 259.416,35.7216 258.5,36C 261.329,36.0475 263.663,37.0475 265.5,39C 264.577,41.0408 264.244,43.2075 264.5,45.5C 263.127,45.3433 261.793,45.51 260.5,46C 259.743,47.5122 258.743,48.8455 257.5,50C 262.99,50.7058 268.323,52.0392 273.5,54C 271.751,55.2915 269.918,56.4582 268,57.5C 266.991,59.0249 266.491,60.6916 266.5,62.5C 264.09,63.3835 261.757,64.5502 259.5,66C 257.801,68.3099 255.801,70.1433 253.5,71.5C 237.431,66.7154 221.098,64.7154 204.5,65.5C 204.833,64.8333 205.167,64.1667 205.5,63.5C 201.893,62.5108 198.226,62.1774 194.5,62.5C 194.5,61.8333 194.833,61.5 195.5,61.5C 201.391,60.3593 207.391,59.3593 213.5,58.5C 217.071,59.5826 219.737,58.4159 221.5,55C 222.793,54.51 224.127,54.3433 225.5,54.5C 225.5,53.1667 225.5,51.8333 225.5,50.5C 228.382,50.3924 230.715,49.2257 232.5,47C 234.81,46.5034 237.143,46.3367 239.5,46.5C 239.5,45.1667 239.5,43.8333 239.5,42.5C 242.535,42.4789 244.868,41.1455 246.5,38.5C 249.709,39.7585 251.709,38.5919 252.5,35C 251.281,32.616 251.281,30.2826 252.5,28C 251.07,26.5596 249.403,26.2263 247.5,27C 241.832,29.1791 236.832,32.3458 232.5,36.5C 230.25,30.0373 230.25,23.7039 232.5,17.5 Z"/></g>
<g><path style="opacity:1" fill="#eddec0" d="M 210.5,17.5 C 208.944,18.2741 207.944,20.1074 207.5,23C 208.742,24.6512 209.576,26.4845 210,28.5C 211.119,35.141 211.453,41.8077 211,48.5C 208.894,50.291 206.394,50.9577 203.5,50.5C 203.5,51.8333 203.5,53.1667 203.5,54.5C 199.364,54.9583 196.698,57.2916 195.5,61.5C 194.833,61.5 194.5,61.8333 194.5,62.5C 192.131,62.8511 189.797,63.0178 187.5,63C 189.396,61.9354 189.563,61.1021 188,60.5C 182.611,61.7325 177.777,64.0658 173.5,67.5C 173.167,66.8333 172.833,66.1667 172.5,65.5C 169.146,68.1877 166.146,71.1877 163.5,74.5C 160.932,74.5943 159.432,75.9276 159,78.5C 157.644,77.6198 156.144,77.2865 154.5,77.5C 154.5,79.1667 154.5,80.8333 154.5,82.5C 152.042,82.2275 150.375,83.2275 149.5,85.5C 146.914,86.48 144.247,86.8134 141.5,86.5C 141.762,87.9778 141.429,89.3112 140.5,90.5C 137.243,91.5514 133.91,92.2181 130.5,92.5C 130.5,93.5 130.5,94.5 130.5,95.5C 128.179,95.2289 126.179,95.8955 124.5,97.5C 123.496,101.694 121.829,105.361 119.5,108.5C 115.485,108.276 114.819,109.443 117.5,112C 117.192,113.459 116.525,114.626 115.5,115.5C 113.526,113.572 112.026,111.239 111,108.5C 109.48,102.371 109.313,96.3712 110.5,90.5C 110.183,93.5719 110.516,96.5719 111.5,99.5C 112.952,96.7052 115.285,95.0385 118.5,94.5C 119.246,93.2638 119.579,91.9305 119.5,90.5C 123.388,89.4098 127.054,87.7431 130.5,85.5C 131.853,84.4763 132.52,83.143 132.5,81.5C 133.833,81.5 135.167,81.5 136.5,81.5C 136.5,80.1667 136.5,78.8333 136.5,77.5C 138.288,77.7852 139.955,77.4519 141.5,76.5C 147.75,72.5424 154.417,69.3757 161.5,67C 163.393,63.3867 166.393,61.8867 170.5,62.5C 170.281,61.325 170.614,60.325 171.5,59.5C 176.088,57.6862 179.422,54.6862 181.5,50.5C 185.158,49.2644 188.492,48.2644 191.5,47.5C 192.933,38.3689 194.766,29.0356 197,19.5C 198.139,16.4167 199.472,13.4167 201,10.5C 202.011,9.66337 203.178,9.33003 204.5,9.5C 204.402,13.1095 205.236,16.4429 207,19.5C 207.333,17.5 207.667,15.5 208,13.5C 208.2,15.3197 209.034,16.653 210.5,17.5 Z"/></g>
<g><path style="opacity:1" fill="#b09e81" d="M 260.5,34.5 C 263.516,34.8406 266.182,36.0073 268.5,38C 266.996,40.5138 265.662,43.0138 264.5,45.5C 264.244,43.2075 264.577,41.0408 265.5,39C 263.663,37.0475 261.329,36.0475 258.5,36C 259.416,35.7216 260.082,35.2216 260.5,34.5 Z"/></g>
<g><path style="opacity:1" fill="#e8d7b8" d="M 228.5,6.5 C 229.167,6.5 229.833,6.5 230.5,6.5C 231.422,10.1119 232.089,13.7785 232.5,17.5C 230.25,23.7039 230.25,30.0373 232.5,36.5C 236.832,32.3458 241.832,29.1791 247.5,27C 249.403,26.2263 251.07,26.5596 252.5,28C 251.281,30.2826 251.281,32.616 252.5,35C 251.709,38.5919 249.709,39.7585 246.5,38.5C 244.868,41.1455 242.535,42.4789 239.5,42.5C 239.5,43.8333 239.5,45.1667 239.5,46.5C 237.143,46.3367 234.81,46.5034 232.5,47C 230.715,49.2257 228.382,50.3924 225.5,50.5C 225.5,51.8333 225.5,53.1667 225.5,54.5C 224.127,54.3433 222.793,54.51 221.5,55C 219.737,58.4159 217.071,59.5826 213.5,58.5C 207.391,59.3593 201.391,60.3593 195.5,61.5C 196.698,57.2916 199.364,54.9583 203.5,54.5C 203.5,53.1667 203.5,51.8333 203.5,50.5C 206.394,50.9577 208.894,50.291 211,48.5C 211.453,41.8077 211.119,35.141 210,28.5C 209.576,26.4845 208.742,24.6512 207.5,23C 207.944,20.1074 208.944,18.2741 210.5,17.5C 212.31,20.145 213.31,23.145 213.5,26.5C 213.369,27.2389 213.536,27.9056 214,28.5C 215.188,27.4366 215.688,26.1033 215.5,24.5C 217.608,16.7497 221.941,10.7497 228.5,6.5 Z"/></g>
<g><path style="opacity:0.525" fill="#6b6257" d="M 215.5,24.5 C 215.688,26.1033 215.188,27.4366 214,28.5C 213.536,27.9056 213.369,27.2389 213.5,26.5C 214.167,25.8333 214.833,25.1667 215.5,24.5 Z"/></g>
<g><path style="opacity:1" fill="#f1e2c8" d="M 191.5,47.5 C 188.492,48.2644 185.158,49.2644 181.5,50.5C 179.422,54.6862 176.088,57.6862 171.5,59.5C 170.614,60.325 170.281,61.325 170.5,62.5C 166.393,61.8867 163.393,63.3867 161.5,67C 154.417,69.3757 147.75,72.5424 141.5,76.5C 139.955,77.4519 138.288,77.7852 136.5,77.5C 136.5,78.8333 136.5,80.1667 136.5,81.5C 135.167,81.5 133.833,81.5 132.5,81.5C 132.52,83.143 131.853,84.4763 130.5,85.5C 127.054,87.7431 123.388,89.4098 119.5,90.5C 119.579,91.9305 119.246,93.2638 118.5,94.5C 115.285,95.0385 112.952,96.7052 111.5,99.5C 110.516,96.5719 110.183,93.5719 110.5,90.5C 112.825,81.8447 115.158,73.178 117.5,64.5C 119.747,65.3742 122.08,65.7076 124.5,65.5C 124.436,60.8072 124.769,56.1405 125.5,51.5C 125.649,49.6803 126.316,48.1803 127.5,47C 126.552,46.5172 125.552,46.3505 124.5,46.5C 124.402,44.4471 125.069,42.7804 126.5,41.5C 127.71,41.9321 128.71,42.5987 129.5,43.5C 129.238,44.9778 129.571,46.3112 130.5,47.5C 131.425,48.6405 132.259,48.6405 133,47.5C 137.844,55.7298 145.011,59.0631 154.5,57.5C 151.758,53.8541 148.592,50.5208 145,47.5C 144.17,41.8041 144.337,36.1375 145.5,30.5C 149.365,33.2631 153.365,35.7631 157.5,38C 161,41.5 164.5,45 168,48.5C 169.255,41.9406 169.922,35.274 170,28.5C 171.422,23.2271 173.422,18.2271 176,13.5C 178.969,18.6336 182.136,23.6336 185.5,28.5C 187.051,35.0563 189.051,41.3897 191.5,47.5 Z M 138.5,48.5 C 140.027,48.427 141.027,49.0937 141.5,50.5C 139.973,50.573 138.973,49.9063 138.5,48.5 Z"/></g>
<g><path style="opacity:1" fill="#e4d3b8" d="M 203.5,-0.5 C 204.167,-0.5 204.833,-0.5 205.5,-0.5C 206.758,5.60863 208.425,11.6086 210.5,17.5C 209.034,16.653 208.2,15.3197 208,13.5C 207.667,15.5 207.333,17.5 207,19.5C 205.236,16.4429 204.402,13.1095 204.5,9.5C 203.178,9.33003 202.011,9.66337 201,10.5C 199.472,13.4167 198.139,16.4167 197,19.5C 194.766,29.0356 192.933,38.3689 191.5,47.5C 189.051,41.3897 187.051,35.0563 185.5,28.5C 182.136,23.6336 178.969,18.6336 176,13.5C 173.422,18.2271 171.422,23.2271 170,28.5C 169.922,35.274 169.255,41.9406 168,48.5C 164.5,45 161,41.5 157.5,38C 153.365,35.7631 149.365,33.2631 145.5,30.5C 144.337,36.1375 144.17,41.8041 145,47.5C 148.592,50.5208 151.758,53.8541 154.5,57.5C 145.011,59.0631 137.844,55.7298 133,47.5C 132.259,48.6405 131.425,48.6405 130.5,47.5C 129.571,46.3112 129.238,44.9778 129.5,43.5C 132.043,45.9395 135.043,47.6062 138.5,48.5C 138.35,42.9716 138.85,37.3049 140,31.5C 140.673,27.9799 141.84,24.6466 143.5,21.5C 149.921,27.2672 156.588,32.6006 163.5,37.5C 163.783,38.2891 164.283,38.9558 165,39.5C 165.49,38.2068 165.657,36.8734 165.5,35.5C 165.485,23.3735 169.318,12.7068 177,3.5C 181.356,10.8787 185.189,18.5454 188.5,26.5C 189.017,29.5823 189.85,32.5823 191,35.5C 191.602,32.7795 191.435,30.1128 190.5,27.5C 190.5,27.1667 190.5,26.8333 190.5,26.5C 191.924,24.4855 192.59,22.1522 192.5,19.5C 194.617,11.9284 198.284,5.26173 203.5,-0.5 Z M 138.5,48.5 C 140.027,48.427 141.027,49.0937 141.5,50.5C 139.973,50.573 138.973,49.9063 138.5,48.5 Z"/></g>
<g><path style="opacity:0.047" fill="#39332e" d="M 165.5,35.5 C 165.657,36.8734 165.49,38.2068 165,39.5C 164.283,38.9558 163.783,38.2891 163.5,37.5C 164.167,36.8333 164.833,36.1667 165.5,35.5 Z"/></g>
<g><path style="opacity:0.678" fill="#887d70" d="M 188.5,26.5 C 189.167,26.8333 189.833,27.1667 190.5,27.5C 191.435,30.1128 191.602,32.7795 191,35.5C 189.85,32.5823 189.017,29.5823 188.5,26.5 Z"/></g>
<g><path style="opacity:0.867" fill="#8a7f73" d="M 192.5,19.5 C 192.59,22.1522 191.924,24.4855 190.5,26.5C 190.41,23.8478 191.076,21.5145 192.5,19.5 Z"/></g>
<g><path style="opacity:1" fill="#bfb7a7" d="M 67.5,23.5 C 68.4916,23.3284 69.1583,23.6618 69.5,24.5C 50.6585,39.1786 35.1585,56.8453 23,77.5C 20.0746,84.3481 16.9079,91.0148 13.5,97.5C 13.1959,95.2043 12.1959,94.871 10.5,96.5C 21.7087,65.9723 40.7087,41.639 67.5,23.5 Z"/></g>
<g><path style="opacity:0.997" fill="#d5bf9a" d="M 264.5,45.5 C 264.389,46.1174 264.056,46.6174 263.5,47C 269.939,47.6402 275.772,49.8068 281,53.5C 281.667,54.1667 281.667,54.8333 281,55.5C 270.925,59.5778 263.425,66.4111 258.5,76C 253.648,75.7819 248.981,74.9486 244.5,73.5C 243.432,72.5655 242.099,72.2322 240.5,72.5C 237.124,70.9177 233.458,70.2511 229.5,70.5C 228.167,70.5 226.833,70.5 225.5,70.5C 220.167,69.1667 214.833,69.1667 209.5,70.5C 208.167,70.5 206.833,70.5 205.5,70.5C 199.7,70.9905 194.367,72.6572 189.5,75.5C 187.158,75.5041 185.158,76.3375 183.5,78C 184.5,78.3333 185.5,78.6667 186.5,79C 184.5,79.3333 182.5,79.6667 180.5,80C 181.598,80.7697 181.598,81.603 180.5,82.5C 178.5,83.1667 176.5,83.8333 174.5,84.5C 174.5,83.8333 174.5,83.1667 174.5,82.5C 176.167,81.5 177.5,80.1667 178.5,78.5C 179.167,78.5 179.5,78.1667 179.5,77.5C 180.167,77.5 180.5,77.1667 180.5,76.5C 182.5,75.1667 184.167,73.5 185.5,71.5C 183.938,71.7329 182.605,72.3995 181.5,73.5C 178.911,74.4194 176.911,76.086 175.5,78.5C 174.833,79.5 174.167,80.5 173.5,81.5C 173.167,81.5 172.833,81.5 172.5,81.5C 171.637,82.463 170.97,82.463 170.5,81.5C 171.18,80.1401 171.847,78.8068 172.5,77.5C 172.5,76.8333 172.5,76.1667 172.5,75.5C 171.5,75.8333 170.833,76.5 170.5,77.5C 169.833,77.5 169.5,77.8333 169.5,78.5C 167.738,79.2623 166.738,80.5956 166.5,82.5C 166.672,83.4916 166.338,84.1583 165.5,84.5C 165.167,84.5 164.833,84.5 164.5,84.5C 164.5,83.8333 164.5,83.1667 164.5,82.5C 164.5,82.1667 164.5,81.8333 164.5,81.5C 166.175,79.8212 167.008,77.8212 167,75.5C 165.569,77.3635 164.403,79.3635 163.5,81.5C 163.5,81.8333 163.5,82.1667 163.5,82.5C 162.596,83.209 162.263,84.209 162.5,85.5C 161.043,88.9577 160.043,92.6243 159.5,96.5C 158.511,98.782 158.011,101.115 158,103.5C 159.095,102.307 159.928,100.973 160.5,99.5C 160.5,99.1667 160.5,98.8333 160.5,98.5C 161.167,98.1667 161.833,97.8333 162.5,97.5C 164.749,96.9202 166.415,95.5869 167.5,93.5C 168.496,93.4142 169.329,93.7476 170,94.5C 171.701,92.5899 173.867,91.4232 176.5,91C 182.491,90.5005 188.491,90.3338 194.5,90.5C 197.167,90.5 199.833,90.5 202.5,90.5C 202.5,91.1667 202.833,91.5 203.5,91.5C 203.5,91.8333 203.5,92.1667 203.5,92.5C 203.53,93.4972 203.03,94.1639 202,94.5C 198.524,93.0644 196.691,93.0644 196.5,94.5C 198.885,96.8838 200.885,99.5505 202.5,102.5C 201.504,102.414 200.671,102.748 200,103.5C 198.757,101.167 197.091,100.5 195,101.5C 192.521,99.6665 189.687,98.6665 186.5,98.5C 183.068,100.088 179.401,100.755 175.5,100.5C 176.449,102.737 177.116,105.071 177.5,107.5C 177.394,110.079 178.061,112.412 179.5,114.5C 178.167,114.5 177.5,115.167 177.5,116.5C 176.21,115.942 175.377,114.942 175,113.5C 174.517,114.448 174.351,115.448 174.5,116.5C 174.5,117.833 174.5,119.167 174.5,120.5C 169.816,116.219 168.316,110.885 170,104.5C 171.211,101.241 173.044,98.4075 175.5,96C 172.983,95.7434 170.65,96.4101 168.5,98C 162.832,103.188 157.998,109.021 154,115.5C 153.667,114.167 153.333,112.833 153,111.5C 150.492,114.531 147.992,117.531 145.5,120.5C 144.903,120.265 144.57,119.765 144.5,119C 146.519,117.312 148.186,115.312 149.5,113C 149.167,112.833 148.833,112.667 148.5,112.5C 145.748,115.263 142.748,117.597 139.5,119.5C 135.6,122.037 131.266,123.037 126.5,122.5C 125.5,122.5 124.5,122.5 123.5,122.5C 121.901,122.232 120.568,122.566 119.5,123.5C 118.508,123.328 117.842,123.662 117.5,124.5C 111.458,120.792 107.791,115.459 106.5,108.5C 107.467,109.806 108.801,110.473 110.5,110.5C 110.011,114.487 111.678,116.82 115.5,117.5C 120.985,118.652 126.651,118.818 132.5,118C 139.198,114.476 144.864,109.643 149.5,103.5C 150.251,104.376 150.751,105.376 151,106.5C 154.429,99.1874 156.762,91.5207 158,83.5C 159.343,80.1381 161.176,77.1381 163.5,74.5C 166.146,71.1877 169.146,68.1877 172.5,65.5C 172.833,66.1667 173.167,66.8333 173.5,67.5C 177.777,64.0658 182.611,61.7325 188,60.5C 189.563,61.1021 189.396,61.9354 187.5,63C 189.797,63.0178 192.131,62.8511 194.5,62.5C 198.226,62.1774 201.893,62.5108 205.5,63.5C 205.167,64.1667 204.833,64.8333 204.5,65.5C 221.098,64.7154 237.431,66.7154 253.5,71.5C 255.801,70.1433 257.801,68.3099 259.5,66C 261.757,64.5502 264.09,63.3835 266.5,62.5C 266.491,60.6916 266.991,59.0249 268,57.5C 269.918,56.4582 271.751,55.2915 273.5,54C 268.323,52.0392 262.99,50.7058 257.5,50C 258.743,48.8455 259.743,47.5122 260.5,46C 261.793,45.51 263.127,45.3433 264.5,45.5 Z M 185.5,71.5 C 184.167,73.5 182.5,75.1667 180.5,76.5C 180.557,75.391 180.89,74.391 181.5,73.5C 182.605,72.3995 183.938,71.7329 185.5,71.5 Z M 230.5,72.5 C 233.652,71.761 236.985,71.761 240.5,72.5C 239.081,73.4511 237.415,73.7845 235.5,73.5C 233.958,72.6993 232.292,72.366 230.5,72.5 Z M 172.5,75.5 C 172.5,76.1667 172.5,76.8333 172.5,77.5C 171.833,77.5 171.167,77.5 170.5,77.5C 170.833,76.5 171.5,75.8333 172.5,75.5 Z M 175.5,78.5 C 176.5,78.5 177.5,78.5 178.5,78.5C 177.5,80.1667 176.167,81.5 174.5,82.5C 174.5,81.8333 174.167,81.5 173.5,81.5C 174.167,80.5 174.833,79.5 175.5,78.5 Z"/></g>
<g><path style="opacity:0.224" fill="#48494e" d="M 209.5,70.5 C 214.833,69.1667 220.167,69.1667 225.5,70.5C 222.287,70.19 219.287,70.5233 216.5,71.5C 215.5,71.5 214.5,71.5 213.5,71.5C 212.432,70.5655 211.099,70.2322 209.5,70.5 Z"/></g>
<g><path style="opacity:0.541" fill="#544e4a" d="M 229.5,70.5 C 233.458,70.2511 237.124,70.9177 240.5,72.5C 236.985,71.761 233.652,71.761 230.5,72.5C 228.265,72.7947 226.265,72.4614 224.5,71.5C 226.415,71.7845 228.081,71.4511 229.5,70.5 Z"/></g>
<g><path style="opacity:0.157" fill="#514a41" d="M 173.5,73.5 C 174.254,71.5541 175.588,70.7207 177.5,71C 176.529,72.4813 175.196,73.3146 173.5,73.5 Z"/></g>
<g><path style="opacity:0.533" fill="#63625c" d="M 205.5,70.5 C 205.5,71.1667 205.833,71.5 206.5,71.5C 200.91,72.6457 195.244,73.979 189.5,75.5C 194.367,72.6572 199.7,70.9905 205.5,70.5 Z"/></g>
<g><path style="opacity:0.02" fill="#2d2d30" d="M 240.5,72.5 C 242.099,72.2322 243.432,72.5655 244.5,73.5C 242.007,73.1307 241.34,73.7973 242.5,75.5C 239.933,75.2785 237.599,74.6118 235.5,73.5C 237.415,73.7845 239.081,73.4511 240.5,72.5 Z"/></g>
<g><path style="opacity:0.267" fill="#575856" d="M 209.5,77.5 C 205.081,76.0824 203.081,76.0824 203.5,77.5C 202.329,78.3446 200.995,79.0113 199.5,79.5C 198.448,77.744 196.781,77.0773 194.5,77.5C 201.647,75.0724 208.981,74.9057 216.5,77C 214.19,77.4966 211.857,77.6633 209.5,77.5 Z"/></g>
<g><path style="opacity:0.035" fill="#2f313a" d="M 181.5,73.5 C 180.89,74.391 180.557,75.391 180.5,76.5C 179.833,76.5 179.5,76.8333 179.5,77.5C 178.833,77.5 178.5,77.8333 178.5,78.5C 177.5,78.5 176.5,78.5 175.5,78.5C 176.911,76.086 178.911,74.4194 181.5,73.5 Z"/></g>
<g><path style="opacity:1" fill="#ab987d" d="M 189.5,75.5 C 189.082,76.2216 188.416,76.7216 187.5,77C 189.473,77.4955 191.473,77.6621 193.5,77.5C 189.332,79.3383 184.998,81.005 180.5,82.5C 181.598,81.603 181.598,80.7697 180.5,80C 182.5,79.6667 184.5,79.3333 186.5,79C 185.5,78.6667 184.5,78.3333 183.5,78C 185.158,76.3375 187.158,75.5041 189.5,75.5 Z"/></g>
<g><path style="opacity:0.022" fill="#3d383a" d="M 170.5,77.5 C 171.167,77.5 171.833,77.5 172.5,77.5C 171.847,78.8068 171.18,80.1401 170.5,81.5C 170.97,82.463 171.637,82.463 172.5,81.5C 172.611,82.1174 172.944,82.6174 173.5,83C 172.034,83.6355 170.7,84.4688 169.5,85.5C 168.859,84.0065 167.859,83.0065 166.5,82.5C 166.738,80.5956 167.738,79.2623 169.5,78.5C 170.206,79.5573 170.539,79.2239 170.5,77.5 Z"/></g>
<g><path style="opacity:0.549" fill="#786c5e" d="M 164.5,81.5 C 164.167,81.5 163.833,81.5 163.5,81.5C 164.403,79.3635 165.569,77.3635 167,75.5C 167.008,77.8212 166.175,79.8212 164.5,81.5 Z"/></g>
<g><path style="opacity:0.02" fill="#3d3c3e" d="M 225.5,81.5 C 228.059,81.1984 230.393,81.5318 232.5,82.5C 230.602,83.0893 228.602,83.256 226.5,83C 227.416,83.2784 228.082,83.7784 228.5,84.5C 226.214,84.405 224.214,83.7384 222.5,82.5C 223.791,82.7373 224.791,82.404 225.5,81.5 Z"/></g>
<g><path style="opacity:1" fill="#ead8b7" d="M 163.5,74.5 C 161.176,77.1381 159.343,80.1381 158,83.5C 156.762,91.5207 154.429,99.1874 151,106.5C 150.751,105.376 150.251,104.376 149.5,103.5C 144.864,109.643 139.198,114.476 132.5,118C 126.651,118.818 120.985,118.652 115.5,117.5C 115.5,116.833 115.5,116.167 115.5,115.5C 116.525,114.626 117.192,113.459 117.5,112C 114.819,109.443 115.485,108.276 119.5,108.5C 121.829,105.361 123.496,101.694 124.5,97.5C 126.179,95.8955 128.179,95.2289 130.5,95.5C 130.5,94.5 130.5,93.5 130.5,92.5C 133.91,92.2181 137.243,91.5514 140.5,90.5C 141.429,89.3112 141.762,87.9778 141.5,86.5C 144.247,86.8134 146.914,86.48 149.5,85.5C 150.375,83.2275 152.042,82.2275 154.5,82.5C 154.5,80.8333 154.5,79.1667 154.5,77.5C 156.144,77.2865 157.644,77.6198 159,78.5C 159.432,75.9276 160.932,74.5943 163.5,74.5 Z"/></g>
<g><path style="opacity:0.035" fill="#3d373d" d="M 180.5,82.5 C 179.942,83.7899 178.942,84.6232 177.5,85C 175.486,85.7787 174.486,85.612 174.5,84.5C 176.5,83.8333 178.5,83.1667 180.5,82.5 Z"/></g>
<g><path style="opacity:0.365" fill="#74665a" d="M 185.5,84.5 C 185.389,85.1174 185.056,85.6174 184.5,86C 186.382,86.1981 188.048,86.6981 189.5,87.5C 187.833,87.5 186.167,87.5 184.5,87.5C 181.662,85.6941 181.995,84.6941 185.5,84.5 Z"/></g>
<g><path style="opacity:1" fill="#d8bf96" d="M 206.5,71.5 C 208.833,71.5 211.167,71.5 213.5,71.5C 214.5,71.5 215.5,71.5 216.5,71.5C 219.167,71.5 221.833,71.5 224.5,71.5C 226.265,72.4614 228.265,72.7947 230.5,72.5C 230.196,73.1499 229.863,73.8165 229.5,74.5C 231.167,75.1667 232.833,75.8333 234.5,76.5C 234.291,77.086 233.957,77.586 233.5,78C 237.703,78.5499 241.703,79.7165 245.5,81.5C 244.833,81.8333 244.167,82.1667 243.5,82.5C 237.27,80.1796 230.936,79.513 224.5,80.5C 221.833,80.5 219.167,80.5 216.5,80.5C 215.167,80.8333 215.167,81.1667 216.5,81.5C 217.833,81.8333 219.167,82.1667 220.5,82.5C 221.167,82.5 221.833,82.5 222.5,82.5C 224.214,83.7384 226.214,84.405 228.5,84.5C 231.873,85.0659 234.873,86.3993 237.5,88.5C 238.429,89.3149 239.429,90.1482 240.5,91C 239.906,91.4643 239.239,91.631 238.5,91.5C 237.391,91.4431 236.391,91.1098 235.5,90.5C 233.621,89.6586 231.621,89.3253 229.5,89.5C 229.167,89.5 228.833,89.5 228.5,89.5C 228.158,88.6618 227.492,88.3284 226.5,88.5C 226.167,88.5 225.833,88.5 225.5,88.5C 222.696,87.3622 219.696,87.1955 216.5,88C 218.813,88.662 221.146,89.162 223.5,89.5C 223.833,89.5 224.167,89.5 224.5,89.5C 225.209,90.404 226.209,90.7373 227.5,90.5C 228.167,90.5 228.833,90.5 229.5,90.5C 232.216,91.6341 234.882,92.9675 237.5,94.5C 238.598,95.397 238.598,96.2303 237.5,97C 240.109,97.9431 242.109,99.6097 243.5,102C 242.167,102.167 240.833,102.333 239.5,102.5C 234.833,100.283 229.833,99.1161 224.5,99C 219.535,96.6741 214.535,94.3407 209.5,92C 208.207,91.51 206.873,91.3433 205.5,91.5C 205.027,90.0937 204.027,89.427 202.5,89.5C 200.585,89.7845 198.919,89.4511 197.5,88.5C 195.052,87.5269 192.385,87.1936 189.5,87.5C 188.048,86.6981 186.382,86.1981 184.5,86C 185.056,85.6174 185.389,85.1174 185.5,84.5C 189.761,81.927 194.428,80.2603 199.5,79.5C 200.995,79.0113 202.329,78.3446 203.5,77.5C 205.5,77.5 207.5,77.5 209.5,77.5C 211.857,77.6633 214.19,77.4966 216.5,77C 208.981,74.9057 201.647,75.0724 194.5,77.5C 194.167,77.5 193.833,77.5 193.5,77.5C 191.473,77.6621 189.473,77.4955 187.5,77C 188.416,76.7216 189.082,76.2216 189.5,75.5C 195.244,73.979 200.91,72.6457 206.5,71.5 Z"/></g>
<g><path style="opacity:0.125" fill="#403f3e" d="M 216.5,81.5 C 216.5,81.1667 216.5,80.8333 216.5,80.5C 219.167,80.5 221.833,80.5 224.5,80.5C 224.5,80.8333 224.5,81.1667 224.5,81.5C 222.901,81.2322 221.568,81.5655 220.5,82.5C 219.167,82.1667 217.833,81.8333 216.5,81.5 Z"/></g>
<g><path style="opacity:0.604" fill="#9d8e7a" d="M 163.5,82.5 C 163.833,82.5 164.167,82.5 164.5,82.5C 164.5,83.1667 164.5,83.8333 164.5,84.5C 164.598,86.5529 163.931,88.2196 162.5,89.5C 162.5,88.1667 162.5,86.8333 162.5,85.5C 163.404,84.791 163.737,83.791 163.5,82.5 Z"/></g>
<g><path style="opacity:0.012" fill="#2a2d38" d="M 184.5,87.5 C 186.167,87.5 187.833,87.5 189.5,87.5C 192.385,87.1936 195.052,87.5269 197.5,88.5C 194.941,88.1984 192.607,88.5318 190.5,89.5C 189.167,89.5 187.833,89.5 186.5,89.5C 185.833,88.8333 185.167,88.1667 184.5,87.5 Z"/></g>
<g><path style="opacity:0.325" fill="#6b675f" d="M 225.5,88.5 C 224.508,88.3284 223.842,88.6618 223.5,89.5C 221.146,89.162 218.813,88.662 216.5,88C 219.696,87.1955 222.696,87.3622 225.5,88.5 Z"/></g>
<g><path style="opacity:0.09" fill="#383029" d="M 237.5,88.5 C 240.5,88.1667 241.833,89.5 241.5,92.5C 240.209,92.7373 239.209,92.404 238.5,91.5C 239.239,91.631 239.906,91.4643 240.5,91C 239.429,90.1482 238.429,89.3149 237.5,88.5 Z"/></g>
<g><path style="opacity:1" fill="#d9c8af" d="M 53.5,49.5 C 52.962,51.1172 52.6287,52.7839 52.5,54.5C 53.791,54.2627 54.791,54.596 55.5,55.5C 44.8524,68.4584 36.519,82.7918 30.5,98.5C 30.8588,96.2341 30.1922,94.4007 28.5,93C 29.7112,92.1072 29.7112,91.2739 28.5,90.5C 27.8589,91.9935 26.8589,92.9935 25.5,93.5C 32.0776,76.9542 41.411,62.2876 53.5,49.5 Z"/></g>
<g><path style="opacity:0.049" fill="#444140" d="M 164.5,84.5 C 164.833,84.5 165.167,84.5 165.5,84.5C 165.967,87.3795 165.134,89.7129 163,91.5C 161.282,90.9689 161.115,90.3023 162.5,89.5C 163.931,88.2196 164.598,86.5529 164.5,84.5 Z"/></g>
<g><path style="opacity:0.554" fill="#756a60" d="M 186.5,89.5 C 187.833,89.5 189.167,89.5 190.5,89.5C 192.099,89.2322 193.432,89.5655 194.5,90.5C 188.491,90.3338 182.491,90.5005 176.5,91C 173.867,91.4232 171.701,92.5899 170,94.5C 169.329,93.7476 168.496,93.4142 167.5,93.5C 173.384,89.8097 179.717,88.4764 186.5,89.5 Z"/></g>
<g><path style="opacity:0.557" fill="#5f5850" d="M 202.5,90.5 C 202.5,90.1667 202.5,89.8333 202.5,89.5C 204.027,89.427 205.027,90.0937 205.5,91.5C 204.833,91.5 204.167,91.5 203.5,91.5C 202.833,91.5 202.5,91.1667 202.5,90.5 Z"/></g>
<g><path style="opacity:0.016" fill="#38383e" d="M 226.5,88.5 C 227.492,88.3284 228.158,88.6618 228.5,89.5C 227.833,89.5 227.5,89.8333 227.5,90.5C 226.209,90.7373 225.209,90.404 224.5,89.5C 225.492,89.6716 226.158,89.3382 226.5,88.5 Z"/></g>
<g><path style="opacity:0.365" fill="#464345" d="M 229.5,90.5 C 229.5,90.1667 229.5,89.8333 229.5,89.5C 231.621,89.3253 233.621,89.6586 235.5,90.5C 233.741,90.9539 231.741,90.9539 229.5,90.5 Z"/></g>
<g><path style="opacity:1" fill="#dac6a7" d="M 126.5,41.5 C 125.069,42.7804 124.402,44.4471 124.5,46.5C 125.552,46.3505 126.552,46.5172 127.5,47C 126.316,48.1803 125.649,49.6803 125.5,51.5C 124.769,56.1405 124.436,60.8072 124.5,65.5C 122.08,65.7076 119.747,65.3742 117.5,64.5C 115.158,73.178 112.825,81.8447 110.5,90.5C 109.313,96.3712 109.48,102.371 111,108.5C 112.026,111.239 113.526,113.572 115.5,115.5C 115.5,116.167 115.5,116.833 115.5,117.5C 111.678,116.82 110.011,114.487 110.5,110.5C 108.801,110.473 107.467,109.806 106.5,108.5C 104.5,100.569 104.667,92.5691 107,84.5C 109.528,74.384 112.361,64.384 115.5,54.5C 116.763,56.0287 117.763,57.6954 118.5,59.5C 118.56,60.0431 118.893,60.3764 119.5,60.5C 120.466,58.604 120.799,56.604 120.5,54.5C 120.619,49.8098 121.952,45.4765 124.5,41.5C 125.257,40.2267 125.923,40.2267 126.5,41.5 Z"/></g>
<g><path style="opacity:0.192" fill="#49423b" d="M 120.5,54.5 C 120.799,56.604 120.466,58.604 119.5,60.5C 118.893,60.3764 118.56,60.0431 118.5,59.5C 119.167,57.8333 119.833,56.1667 120.5,54.5 Z"/></g>
<g><path style="opacity:1" fill="#ceb283" d="M 230.5,72.5 C 232.292,72.366 233.958,72.6993 235.5,73.5C 237.599,74.6118 239.933,75.2785 242.5,75.5C 255.527,79.0138 267.527,84.6805 278.5,92.5C 275.785,87.2208 271.785,82.3875 266.5,78C 272.911,79.8722 278.911,82.8722 284.5,87C 289.027,90.6987 293.361,94.532 297.5,98.5C 297.833,99.5 298.5,100.167 299.5,100.5C 304.584,105.248 308.917,110.581 312.5,116.5C 312.28,119.386 312.614,122.386 313.5,125.5C 307.025,114.515 298.858,104.848 289,96.5C 291.333,101.833 293.667,107.167 296,112.5C 282.078,98.1308 265.578,88.2974 246.5,83C 254.937,86.4439 262.603,91.1106 269.5,97C 268.167,97.6667 268.167,98.3333 269.5,99C 270.833,99.3333 272.167,99.6667 273.5,100C 272.748,100.671 272.414,101.504 272.5,102.5C 261.122,92.1441 247.788,85.4774 232.5,82.5C 230.393,81.5318 228.059,81.1984 225.5,81.5C 225.167,81.5 224.833,81.5 224.5,81.5C 224.5,81.1667 224.5,80.8333 224.5,80.5C 230.936,79.513 237.27,80.1796 243.5,82.5C 244.167,82.1667 244.833,81.8333 245.5,81.5C 241.703,79.7165 237.703,78.5499 233.5,78C 233.957,77.586 234.291,77.086 234.5,76.5C 232.833,75.8333 231.167,75.1667 229.5,74.5C 229.863,73.8165 230.196,73.1499 230.5,72.5 Z"/></g>
<g><path style="opacity:0.251" fill="#42362e" d="M 279.5,93.5 C 281.196,93.6854 282.529,94.5187 283.5,96C 281.588,96.2793 280.254,95.4459 279.5,93.5 Z"/></g>
<g><path style="opacity:0.788" fill="#857c6e" d="M 167.5,93.5 C 166.415,95.5869 164.749,96.9202 162.5,97.5C 163.585,95.4131 165.251,94.0798 167.5,93.5 Z"/></g>
<g><path style="opacity:1" fill="#e9d1a8" d="M 196.5,94.5 C 203.895,98.0324 211.228,101.866 218.5,106C 227.766,109.2 237.266,111.367 247,112.5C 249.707,112.372 252.207,111.705 254.5,110.5C 255.814,111.313 256.981,112.313 258,113.5C 259.663,117.496 261.829,121.163 264.5,124.5C 264.167,124.833 263.833,125.167 263.5,125.5C 251.391,116.41 237.724,112.243 222.5,113C 227.5,116 232.5,119 237.5,122C 232.702,124.635 228.035,127.468 223.5,130.5C 223.113,128.269 222.947,125.936 223,123.5C 213.312,130.354 205.145,138.688 198.5,148.5C 197.893,148.376 197.56,148.043 197.5,147.5C 195.998,145.825 194.665,143.992 193.5,142C 203.4,136.032 210.9,127.866 216,117.5C 216.667,115.833 216.667,114.167 216,112.5C 207.939,123.208 197.272,129.874 184,132.5C 177.154,128.767 169.987,125.6 162.5,123C 163.167,122.333 163.833,121.667 164.5,121C 158.175,120.5 151.842,120.334 145.5,120.5C 147.992,117.531 150.492,114.531 153,111.5C 153.333,112.833 153.667,114.167 154,115.5C 157.998,109.021 162.832,103.188 168.5,98C 170.65,96.4101 172.983,95.7434 175.5,96C 173.044,98.4075 171.211,101.241 170,104.5C 168.316,110.885 169.816,116.219 174.5,120.5C 182.476,128.403 190.642,128.403 199,120.5C 203.243,114.958 204.41,108.958 202.5,102.5C 200.885,99.5505 198.885,96.8838 196.5,94.5 Z M 204.5,128.5 C 204.5,130.5 203.5,131.5 201.5,131.5C 202.167,130.167 203.167,129.167 204.5,128.5 Z M 190.5,113.5 C 190.167,114.167 189.833,114.833 189.5,115.5C 187.833,115.5 186.167,115.5 184.5,115.5C 184.5,115.167 184.5,114.833 184.5,114.5C 186.565,114.483 188.565,114.15 190.5,113.5 Z"/></g>
<g><path style="opacity:0.004" fill="#40362f" d="M 297.5,98.5 C 298.833,98.5 299.5,99.1667 299.5,100.5C 298.5,100.167 297.833,99.5 297.5,98.5 Z"/></g>
<g><path style="opacity:1" fill="#ae9f88" d="M 30.5,99.5 C 30.1007,103.116 29.1007,106.45 27.5,109.5C 27.0054,106.25 27.0054,103.584 27.5,101.5C 28.7824,101.912 29.7824,101.246 30.5,99.5 Z"/></g>
<g><path style="opacity:0.561" fill="#807266" d="M 159.5,96.5 C 160.338,96.8417 160.672,97.5084 160.5,98.5C 159.167,98.8333 159.167,99.1667 160.5,99.5C 159.928,100.973 159.095,102.307 158,103.5C 158.011,101.115 158.511,98.782 159.5,96.5 Z"/></g>
<g><path style="opacity:1" fill="#ead2a9" d="M 313.5,125.5 C 326.086,149.95 329.253,175.616 323,202.5C 320.342,212.811 316.842,222.811 312.5,232.5C 304.348,248.418 293.515,262.418 280,274.5C 280.532,271.886 280.865,269.22 281,266.5C 237.852,302.4 188.686,314.233 133.5,302C 85.6075,289.088 51.2742,260.254 30.5,215.5C 27.5522,207.325 25.2188,198.992 23.5,190.5C 24.1174,190.611 24.6174,190.944 25,191.5C 25.4935,189.866 25.6602,188.199 25.5,186.5C 30.9521,200.301 37.1187,213.968 44,227.5C 41.6082,216.281 39.4416,204.947 37.5,193.5C 37.3336,185.16 37.5003,176.827 38,168.5C 38.5112,166.122 39.1779,163.788 40,161.5C 40.0485,168.744 40.8818,175.744 42.5,182.5C 45.0297,198.875 50.363,214.208 58.5,228.5C 62.2999,237.433 67.1332,245.767 73,253.5C 72.9223,251.005 72.4223,248.505 71.5,246C 71.6834,244.316 72.3501,244.15 73.5,245.5C 84.4616,267.167 101.795,281.001 125.5,287C 189.258,301.443 243.091,284.609 287,236.5C 300.889,220.012 309.056,201.012 311.5,179.5C 314.192,164.928 312.192,150.928 305.5,137.5C 304.668,147.817 304.168,158.151 304,168.5C 303,172.833 302,177.167 301,181.5C 300.505,179.527 300.338,177.527 300.5,175.5C 303.424,148.882 296.258,125.215 279,104.5C 277.211,102.771 275.044,102.104 272.5,102.5C 272.414,101.504 272.748,100.671 273.5,100C 272.167,99.6667 270.833,99.3333 269.5,99C 268.167,98.3333 268.167,97.6667 269.5,97C 262.603,91.1106 254.937,86.4439 246.5,83C 265.578,88.2974 282.078,98.1308 296,112.5C 293.667,107.167 291.333,101.833 289,96.5C 298.858,104.848 307.025,114.515 313.5,125.5 Z M 219.5,180.5 C 221.027,180.427 222.027,181.094 222.5,182.5C 220.973,182.573 219.973,181.906 219.5,180.5 Z M 180.5,177.5 C 181.403,185.235 182.07,192.901 182.5,200.5C 182.5,201.5 182.5,202.5 182.5,203.5C 181.833,202.833 181.167,202.167 180.5,201.5C 180.5,193.5 180.5,185.5 180.5,177.5 Z M 264.5,197.5 C 264.405,199.786 263.738,201.786 262.5,203.5C 262.5,202.167 262.5,200.833 262.5,199.5C 263.167,198.833 263.833,198.167 264.5,197.5 Z"/></g>
<g><path style="opacity:1" fill="#d2ba8f" d="M 202.5,102.5 C 204.41,108.958 203.243,114.958 199,120.5C 190.642,128.403 182.476,128.403 174.5,120.5C 174.5,119.167 174.5,117.833 174.5,116.5C 177.043,118.94 180.043,120.606 183.5,121.5C 186.167,121.167 186.167,120.833 183.5,120.5C 181.118,119.649 179.118,118.316 177.5,116.5C 177.5,115.167 178.167,114.5 179.5,114.5C 181.042,115.301 182.708,115.634 184.5,115.5C 186.167,115.5 187.833,115.5 189.5,115.5C 195.016,115.65 198.016,112.984 198.5,107.5C 198.196,105.559 197.363,103.893 196,102.5C 196.456,105.428 196.456,108.428 196,111.5C 195.31,112.738 194.81,112.738 194.5,111.5C 194.663,109.143 194.497,106.81 194,104.5C 193.617,103.944 193.117,103.611 192.5,103.5C 191.167,104.167 191.167,104.833 192.5,105.5C 192.5,107.5 192.5,109.5 192.5,111.5C 191.833,111.5 191.5,111.833 191.5,112.5C 190.833,112.5 190.5,112.833 190.5,113.5C 188.565,114.15 186.565,114.483 184.5,114.5C 184.158,113.662 183.492,113.328 182.5,113.5C 182.5,112.833 182.167,112.5 181.5,112.5C 181.5,112.167 181.5,111.833 181.5,111.5C 181.5,110.833 181.167,110.5 180.5,110.5C 180.5,110.167 180.5,109.833 180.5,109.5C 180.5,108.833 180.5,108.167 180.5,107.5C 180.539,105.776 180.206,105.443 179.5,106.5C 178.833,106.833 178.167,107.167 177.5,107.5C 177.116,105.071 176.449,102.737 175.5,100.5C 179.401,100.755 183.068,100.088 186.5,98.5C 189.687,98.6665 192.521,99.6665 195,101.5C 197.091,100.5 198.757,101.167 200,103.5C 200.671,102.748 201.504,102.414 202.5,102.5 Z M 190.5,113.5 C 190.167,114.167 189.833,114.833 189.5,115.5C 187.833,115.5 186.167,115.5 184.5,115.5C 184.5,115.167 184.5,114.833 184.5,114.5C 186.565,114.483 188.565,114.15 190.5,113.5 Z"/></g>
<g><path style="opacity:0.216" fill="#444950" d="M 185.5,100.5 C 186.167,101.833 186.833,101.833 187.5,100.5C 188.492,100.328 189.158,100.662 189.5,101.5C 188.833,101.5 188.5,101.833 188.5,102.5C 187.167,102.5 185.833,102.5 184.5,102.5C 184.328,101.508 184.662,100.842 185.5,100.5 Z"/></g>
<g><path style="opacity:0.024" fill="#3a3b3a" d="M 192.5,103.5 C 193.117,103.611 193.617,103.944 194,104.5C 194.497,106.81 194.663,109.143 194.5,111.5C 194.167,111.5 193.833,111.5 193.5,111.5C 193.795,109.265 193.461,107.265 192.5,105.5C 192.5,104.833 192.5,104.167 192.5,103.5 Z"/></g>
<g><path style="opacity:0.961" fill="#9a907f" d="M 21.5,105.5 C 21.5905,108.152 20.9238,110.485 19.5,112.5C 19.4095,109.848 20.0762,107.515 21.5,105.5 Z"/></g>
<g><path style="opacity:0.988" fill="#90836c" d="M 189.5,115.5 C 189.833,114.833 190.167,114.167 190.5,113.5C 191.167,113.5 191.5,113.167 191.5,112.5C 192.167,112.5 192.5,112.167 192.5,111.5C 192.833,111.5 193.167,111.5 193.5,111.5C 193.833,111.5 194.167,111.5 194.5,111.5C 194.81,112.738 195.31,112.738 196,111.5C 196.456,108.428 196.456,105.428 196,102.5C 197.363,103.893 198.196,105.559 198.5,107.5C 198.016,112.984 195.016,115.65 189.5,115.5 Z"/></g>
<g><path style="opacity:0.875" fill="#8c806f" d="M 179.5,106.5 C 179.5,107.167 179.833,107.5 180.5,107.5C 180.5,108.167 180.5,108.833 180.5,109.5C 179.167,109.833 179.167,110.167 180.5,110.5C 181.167,110.5 181.5,110.833 181.5,111.5C 180.167,111.833 180.167,112.167 181.5,112.5C 182.167,112.5 182.5,112.833 182.5,113.5C 182.842,114.338 183.508,114.672 184.5,114.5C 184.5,114.833 184.5,115.167 184.5,115.5C 182.708,115.634 181.042,115.301 179.5,114.5C 178.061,112.412 177.394,110.079 177.5,107.5C 178.167,107.167 178.833,106.833 179.5,106.5 Z"/></g>
<g><path style="opacity:1" fill="#c2b395" d="M 13.5,97.5 C 11.0097,106.461 8.67637,115.461 6.5,124.5C 6.16667,124.5 5.83333,124.5 5.5,124.5C 5.65668,123.127 5.49001,121.793 5,120.5C 4.61742,121.056 4.11742,121.389 3.5,121.5C 4.82064,112.873 7.15397,104.54 10.5,96.5C 12.1959,94.871 13.1959,95.2043 13.5,97.5 Z"/></g>
<g><path style="opacity:0.706" fill="#846c47" d="M 277.5,122.5 C 276.075,120.969 275.409,121.302 275.5,123.5C 274.31,121.645 272.977,119.812 271.5,118C 274.727,117.713 276.727,119.213 277.5,122.5 Z"/></g>
<g><path style="opacity:0.471" fill="#746d67" d="M 139.5,119.5 C 138.657,121.173 137.324,122.34 135.5,123C 132.518,123.498 129.518,123.665 126.5,123.5C 126.5,123.167 126.5,122.833 126.5,122.5C 131.266,123.037 135.6,122.037 139.5,119.5 Z"/></g>
<g><path style="opacity:0.855" fill="#868076" d="M 119.5,123.5 C 120.568,122.566 121.901,122.232 123.5,122.5C 123.5,122.833 123.5,123.167 123.5,123.5C 121.858,125.081 119.858,125.747 117.5,125.5C 117.5,125.167 117.5,124.833 117.5,124.5C 119.401,124.754 120.067,124.42 119.5,123.5 Z"/></g>
<g><path style="opacity:0.89" fill="#837360" d="M 51.5,130.5 C 51.6716,129.508 51.3382,128.842 50.5,128.5C 51.5722,125.37 53.4055,122.704 56,120.5C 55.5729,124.268 54.0729,127.602 51.5,130.5 Z"/></g>
<g><path style="opacity:0.999" fill="#c9af7f" d="M 205.5,91.5 C 206.873,91.3433 208.207,91.51 209.5,92C 214.535,94.3407 219.535,96.6741 224.5,99C 229.833,99.1161 234.833,100.283 239.5,102.5C 240.833,102.333 242.167,102.167 243.5,102C 242.109,99.6097 240.109,97.9431 237.5,97C 238.598,96.2303 238.598,95.397 237.5,94.5C 254.534,102.534 265.867,115.534 271.5,133.5C 271.782,136.91 272.449,140.243 273.5,143.5C 273.167,143.833 272.833,144.167 272.5,144.5C 270.326,141.376 268.492,137.376 267,132.5C 266.329,133.252 265.496,133.586 264.5,133.5C 264.167,132.167 263.833,132.167 263.5,133.5C 263.5,133.833 263.5,134.167 263.5,134.5C 262.521,133.235 261.521,131.901 260.5,130.5C 259.614,131.325 259.281,132.325 259.5,133.5C 255.971,125.46 249.971,120.626 241.5,119C 243.996,120.331 245.996,122.164 247.5,124.5C 247.5,125.833 247.5,127.167 247.5,128.5C 250.205,128.38 250.872,129.38 249.5,131.5C 251.171,133.51 251.838,135.843 251.5,138.5C 250.358,135.558 248.691,132.892 246.5,130.5C 244.833,132.5 243.167,134.5 241.5,136.5C 242.355,137.293 243.189,136.96 244,135.5C 240.376,142.051 236.209,148.385 231.5,154.5C 230.874,153.471 230.041,152.471 229,151.5C 228.241,153.063 227.074,154.063 225.5,154.5C 225.166,153.002 225.166,151.335 225.5,149.5C 225.5,148.833 225.167,148.5 224.5,148.5C 223.5,148.833 222.833,149.5 222.5,150.5C 221.133,151.853 220.133,151.519 219.5,149.5C 220.95,148.15 221.617,146.484 221.5,144.5C 224.279,143.383 224.612,142.217 222.5,141C 223.823,140.184 224.489,139.017 224.5,137.5C 224.167,136.167 223.833,136.167 223.5,137.5C 222.833,137.5 222.5,137.833 222.5,138.5C 222.167,138.5 221.833,138.5 221.5,138.5C 220.791,137.596 219.791,137.263 218.5,137.5C 218.671,140.797 218.005,141.131 216.5,138.5C 215.476,139.852 214.476,141.185 213.5,142.5C 213.167,142.5 212.833,142.5 212.5,142.5C 211.884,141.798 211.884,140.798 212.5,139.5C 212.833,138.833 213.167,138.167 213.5,137.5C 215.757,136.438 216.923,134.772 217,132.5C 215.624,133.705 214.458,135.038 213.5,136.5C 211.738,137.262 210.738,138.596 210.5,140.5C 207.505,143.143 205.505,146.477 204.5,150.5C 204.747,151.713 205.414,152.38 206.5,152.5C 207.458,152.047 208.292,151.381 209,150.5C 209.399,150.728 209.565,151.062 209.5,151.5C 206.413,155.253 207.079,158.253 211.5,160.5C 212.386,159.675 212.719,158.675 212.5,157.5C 213.906,157.027 214.573,156.027 214.5,154.5C 215.117,154.389 215.617,154.056 216,153.5C 216.494,155.134 216.66,156.801 216.5,158.5C 216.167,159.167 215.833,159.833 215.5,160.5C 212.833,161.833 212.833,163.167 215.5,164.5C 215.5,164.833 215.5,165.167 215.5,165.5C 213.589,165.574 212.422,166.574 212,168.5C 208.622,165.124 205.622,161.457 203,157.5C 202.283,158.044 201.783,158.711 201.5,159.5C 200.883,159.389 200.383,159.056 200,158.5C 199.26,159.749 199.427,160.749 200.5,161.5C 200.5,161.833 200.5,162.167 200.5,162.5C 201.162,166.466 201.495,170.466 201.5,174.5C 201.5,174.833 201.5,175.167 201.5,175.5C 200.732,174.737 200.232,173.737 200,172.5C 199.002,177.604 198.169,182.604 197.5,187.5C 198.073,177.69 197.24,168.023 195,158.5C 191.329,161.846 188.662,165.846 187,170.5C 186.501,176.491 186.334,182.491 186.5,188.5C 185.673,183.349 185.173,178.016 185,172.5C 184.722,171.584 184.222,170.918 183.5,170.5C 183.5,169.5 183.5,168.5 183.5,167.5C 183.946,164.611 184.946,161.944 186.5,159.5C 186.182,158.353 185.516,157.519 184.5,157C 186.976,155.691 188.976,153.858 190.5,151.5C 190,151.167 189.5,150.833 189,150.5C 187.989,151.056 187.156,151.722 186.5,152.5C 185.9,151.1 184.9,150.1 183.5,149.5C 186.588,148.932 189.588,148.932 192.5,149.5C 194.177,148.813 195.844,148.146 197.5,147.5C 197.56,148.043 197.893,148.376 198.5,148.5C 205.145,138.688 213.312,130.354 223,123.5C 222.947,125.936 223.113,128.269 223.5,130.5C 228.035,127.468 232.702,124.635 237.5,122C 232.5,119 227.5,116 222.5,113C 237.724,112.243 251.391,116.41 263.5,125.5C 263.833,125.167 264.167,124.833 264.5,124.5C 261.829,121.163 259.663,117.496 258,113.5C 256.981,112.313 255.814,111.313 254.5,110.5C 252.207,111.705 249.707,112.372 247,112.5C 237.266,111.367 227.766,109.2 218.5,106C 211.228,101.866 203.895,98.0324 196.5,94.5C 196.691,93.0644 198.524,93.0644 202,94.5C 203.03,94.1639 203.53,93.4972 203.5,92.5C 204.492,92.6716 205.158,92.3382 205.5,91.5 Z M 259.5,133.5 C 259.433,134.959 259.766,136.292 260.5,137.5C 260.5,138.5 260.5,139.5 260.5,140.5C 259.167,138.833 257.833,137.167 256.5,135.5C 256.573,133.973 255.906,132.973 254.5,132.5C 252.883,129.216 250.55,126.549 247.5,124.5C 245.996,122.164 243.996,120.331 241.5,119C 249.971,120.626 255.971,125.46 259.5,133.5 Z M 219.5,100.5 C 221.553,100.402 223.22,101.069 224.5,102.5C 222.447,102.598 220.78,101.931 219.5,100.5 Z M 213.5,97.5 C 215.153,97.6596 216.486,98.3263 217.5,99.5C 215.62,99.7709 214.287,99.1042 213.5,97.5 Z M 213.5,136.5 C 213.5,136.833 213.5,137.167 213.5,137.5C 213.167,138.167 212.833,138.833 212.5,139.5C 211.833,139.833 211.167,140.167 210.5,140.5C 210.738,138.596 211.738,137.262 213.5,136.5 Z M 210.5,140.5 C 209.758,142.426 208.758,144.259 207.5,146C 208.044,146.717 208.711,147.217 209.5,147.5C 208.075,148.922 207.075,150.589 206.5,152.5C 205.414,152.38 204.747,151.713 204.5,150.5C 205.505,146.477 207.505,143.143 210.5,140.5 Z M 220.5,140.5 C 220.433,141.959 220.766,143.292 221.5,144.5C 218.395,147.275 216.062,150.608 214.5,154.5C 213.094,154.973 212.427,155.973 212.5,157.5C 210.9,158.512 209.566,158.012 208.5,156C 210.037,154.89 210.703,153.39 210.5,151.5C 212.063,150.055 213.396,148.389 214.5,146.5C 215.906,146.027 216.573,145.027 216.5,143.5C 217.833,142.5 219.167,141.5 220.5,140.5 Z M 211.5,144.5 C 211.573,146.027 210.906,147.027 209.5,147.5C 209.427,145.973 210.094,144.973 211.5,144.5 Z"/></g>
<g><path style="opacity:0.176" fill="#646459" d="M 238.5,105.5 C 240.482,105.995 242.482,106.495 244.5,107C 241.633,107.801 238.966,107.634 236.5,106.5C 237.492,106.672 238.158,106.338 238.5,105.5 Z"/></g>
<g><path style="opacity:0.855" fill="#7f715b" d="M 5.5,124.5 C 5.83333,124.5 6.16667,124.5 6.5,124.5C 6.06914,128.337 5.40247,132.003 4.5,135.5C 4.32274,131.766 4.65608,128.099 5.5,124.5 Z"/></g>
<g><path style="opacity:1" fill="#e1cca9" d="M 30.5,98.5 C 30.5,98.8333 30.5,99.1667 30.5,99.5C 29.7824,101.246 28.7824,101.912 27.5,101.5C 27.0054,103.584 27.0054,106.25 27.5,109.5C 27.4512,113.078 26.7846,116.411 25.5,119.5C 24.0057,126.103 23.339,132.936 23.5,140C 23.5009,144.68 23.8342,149.18 24.5,153.5C 24.5,155.833 24.5,158.167 24.5,160.5C 24.1977,164.79 24.8643,168.79 26.5,172.5C 26.5513,175.819 25.8846,177.985 24.5,179C 24.9172,181.498 25.2505,183.998 25.5,186.5C 25.6602,188.199 25.4935,189.866 25,191.5C 24.6174,190.944 24.1174,190.611 23.5,190.5C 20.7491,179.644 18.4158,168.644 16.5,157.5C 15.7492,158.376 15.2492,159.376 15,160.5C 14.5005,154.509 14.3338,148.509 14.5,142.5C 14.5,141.833 14.5,141.167 14.5,140.5C 15.9715,136.081 16.6382,131.414 16.5,126.5C 16.5812,121.523 17.5812,116.857 19.5,112.5C 20.9238,110.485 21.5905,108.152 21.5,105.5C 22.2613,101.216 23.5947,97.2157 25.5,93.5C 26.8589,92.9935 27.8589,91.9935 28.5,90.5C 29.7112,91.2739 29.7112,92.1072 28.5,93C 30.1922,94.4007 30.8588,96.2341 30.5,98.5 Z"/></g>
<g><path style="opacity:1" fill="#ead1a8" d="M 251.5,138.5 C 252.092,141.127 252.425,143.794 252.5,146.5C 244.946,147.572 238.28,150.572 232.5,155.5C 231.893,155.376 231.56,155.043 231.5,154.5C 236.209,148.385 240.376,142.051 244,135.5C 243.189,136.96 242.355,137.293 241.5,136.5C 243.167,134.5 244.833,132.5 246.5,130.5C 248.691,132.892 250.358,135.558 251.5,138.5 Z"/></g>
<g><path style="opacity:1" fill="#bea988" d="M 50.5,128.5 C 51.3382,128.842 51.6716,129.508 51.5,130.5C 50.0026,135.659 48.3359,140.659 46.5,145.5C 46.8515,142.927 46.3515,140.594 45,138.5C 44.7645,140.119 43.9311,141.119 42.5,141.5C 44.3815,136.632 47.0482,132.299 50.5,128.5 Z"/></g>
<g><path style="opacity:0.584" fill="#695e51" d="M 213.5,137.5 C 213.5,137.167 213.5,136.833 213.5,136.5C 214.458,135.038 215.624,133.705 217,132.5C 216.923,134.772 215.757,136.438 213.5,137.5 Z"/></g>
<g><path style="opacity:0.773" fill="#988876" d="M 16.5,126.5 C 16.6382,131.414 15.9715,136.081 14.5,140.5C 14.3618,135.586 15.0285,130.919 16.5,126.5 Z"/></g>
<g><path style="opacity:0.078" fill="#514b40" d="M 25.5,119.5 C 24.7059,130.815 24.3725,142.148 24.5,153.5C 23.8342,149.18 23.5009,144.68 23.5,140C 23.339,132.936 24.0057,126.103 25.5,119.5 Z"/></g>
<g><path style="opacity:0.286" fill="#544c40" d="M 223.5,137.5 C 223.833,137.5 224.167,137.5 224.5,137.5C 224.489,139.017 223.823,140.184 222.5,141C 224.612,142.217 224.279,143.383 221.5,144.5C 220.766,143.292 220.433,141.959 220.5,140.5C 221.167,140.5 221.5,140.167 221.5,139.5C 222.167,139.5 222.5,139.167 222.5,138.5C 223.167,138.5 223.5,138.167 223.5,137.5 Z"/></g>
<g><path style="opacity:1" fill="#c1a36b" d="M 272.5,102.5 C 275.044,102.104 277.211,102.771 279,104.5C 296.258,125.215 303.424,148.882 300.5,175.5C 300.75,170.42 300.25,165.42 299,160.5C 298.191,166.317 297.358,171.983 296.5,177.5C 296.665,174.15 296.498,170.817 296,167.5C 295.56,169.866 295.06,172.199 294.5,174.5C 293.511,185.793 290.511,196.46 285.5,206.5C 284.5,206.5 283.5,206.5 282.5,206.5C 282.477,208.927 281.977,211.26 281,213.5C 280.667,213.167 280.333,212.833 280,212.5C 279.326,215.751 277.493,218.085 274.5,219.5C 278.6,211.633 282.433,203.633 286,195.5C 287.329,188.842 288.663,182.175 290,175.5C 290.747,168.118 290.414,160.785 289,153.5C 289.195,164.871 287.695,175.871 284.5,186.5C 283.85,186.804 283.183,187.137 282.5,187.5C 281.548,185.955 281.215,184.288 281.5,182.5C 281.782,178.426 282.448,174.426 283.5,170.5C 284.655,163.345 284.822,156.012 284,148.5C 283.722,147.584 283.222,146.918 282.5,146.5C 280.779,138.669 278.446,131.003 275.5,123.5C 275.409,121.302 276.075,120.969 277.5,122.5C 282.548,126.918 286.382,132.251 289,138.5C 288.101,130.008 285.435,122.008 281,114.5C 278.336,110.343 275.503,106.343 272.5,102.5 Z"/></g>
<g><path style="opacity:1" fill="#cfb78a" d="M 145.5,120.5 C 151.842,120.334 158.175,120.5 164.5,121C 163.833,121.667 163.167,122.333 162.5,123C 169.987,125.6 177.154,128.767 184,132.5C 197.272,129.874 207.939,123.208 216,112.5C 216.667,114.167 216.667,115.833 216,117.5C 210.9,127.866 203.4,136.032 193.5,142C 194.665,143.992 195.998,145.825 197.5,147.5C 195.844,148.146 194.177,148.813 192.5,149.5C 189.588,148.932 186.588,148.932 183.5,149.5C 179.815,148.996 176.149,148.33 172.5,147.5C 171.274,147.52 170.274,147.853 169.5,148.5C 167.167,148.5 164.833,148.5 162.5,148.5C 160.04,148.301 157.707,147.635 155.5,146.5C 156.5,145.667 157.5,144.833 158.5,144C 156.5,143.333 154.5,143.333 152.5,144C 144.53,153.607 139.863,164.607 138.5,177C 138.804,183.629 139.804,190.129 141.5,196.5C 140.15,195.517 139.15,194.184 138.5,192.5C 137.943,194.718 137.943,197.051 138.5,199.5C 132.418,186.527 131.918,173.193 137,159.5C 138.199,156.01 140.032,153.01 142.5,150.5C 144.757,149.438 145.923,147.772 146,145.5C 144.293,147.037 142.793,148.704 141.5,150.5C 130.472,151.754 119.472,153.421 108.5,155.5C 107.508,155.672 106.842,155.338 106.5,154.5C 108.64,151.939 110.973,149.605 113.5,147.5C 108.54,150.323 103.873,153.657 99.5,157.5C 98.1984,150.046 100.032,143.379 105,137.5C 108.376,132.623 112.543,128.623 117.5,125.5C 119.858,125.747 121.858,125.081 123.5,123.5C 124.5,123.5 125.5,123.5 126.5,123.5C 129.518,123.665 132.518,123.498 135.5,123C 137.324,122.34 138.657,121.173 139.5,119.5C 142.748,117.597 145.748,115.263 148.5,112.5C 148.833,112.667 149.167,112.833 149.5,113C 148.186,115.312 146.519,117.312 144.5,119C 144.57,119.765 144.903,120.265 145.5,120.5 Z M 179.5,136.5 C 180.167,136.5 180.833,136.5 181.5,136.5C 182.429,137.315 183.429,138.148 184.5,139C 183.944,139.383 183.611,139.883 183.5,140.5C 182.833,140.5 182.167,140.5 181.5,140.5C 175.216,139.145 168.883,138.145 162.5,137.5C 162.833,137.5 163.167,137.5 163.5,137.5C 169.026,137.821 174.36,137.488 179.5,136.5 Z M 201.5,131.5 C 199.66,133.914 197.327,135.581 194.5,136.5C 192.488,137.014 190.488,137.18 188.5,137C 189.056,136.617 189.389,136.117 189.5,135.5C 193.683,134.743 197.683,133.41 201.5,131.5 Z M 204.5,128.5 C 204.5,130.5 203.5,131.5 201.5,131.5C 202.167,130.167 203.167,129.167 204.5,128.5 Z M 190.5,113.5 C 190.167,114.167 189.833,114.833 189.5,115.5C 187.833,115.5 186.167,115.5 184.5,115.5C 184.5,115.167 184.5,114.833 184.5,114.5C 186.565,114.483 188.565,114.15 190.5,113.5 Z M 116.5,145.5 C 116.027,146.906 115.027,147.573 113.5,147.5C 113.973,146.094 114.973,145.427 116.5,145.5 Z"/></g>
<g><path style="opacity:0.153" fill="#494744" d="M 189.5,135.5 C 189.389,136.117 189.056,136.617 188.5,137C 190.488,137.18 192.488,137.014 194.5,136.5C 191.098,138.278 187.431,139.611 183.5,140.5C 183.611,139.883 183.944,139.383 184.5,139C 183.429,138.148 182.429,137.315 181.5,136.5C 184.237,136.599 186.904,136.265 189.5,135.5 Z"/></g>
<g><path style="opacity:0.498" fill="#857b68" d="M 162.5,137.5 C 168.883,138.145 175.216,139.145 181.5,140.5C 172.505,140 163.505,139.5 154.5,139C 157.014,137.748 159.68,137.248 162.5,137.5 Z"/></g>
<g><path style="opacity:0.29" fill="#77736b" d="M 131.5,139.5 C 133.429,136.865 136.095,136.032 139.5,137C 136.846,137.941 134.179,138.774 131.5,139.5 Z"/></g>
<g><path style="opacity:0.597" fill="#9d8c74" d="M 177.5,135.5 C 177.833,135.5 178.167,135.5 178.5,135.5C 178.5,136.167 178.833,136.5 179.5,136.5C 174.36,137.488 169.026,137.821 163.5,137.5C 168.167,136.833 172.833,136.167 177.5,135.5 Z"/></g>
<g><path style="opacity:0.506" fill="#776f69" d="M 157.5,126.5 C 157.833,126.5 158.167,126.5 158.5,126.5C 161.159,126.917 163.492,127.917 165.5,129.5C 162.32,129.339 159.653,128.339 157.5,126.5 Z"/></g>
<g><path style="opacity:1" fill="#e9d2a9" d="M 132.5,126.5 C 133.376,126.369 134.043,126.702 134.5,127.5C 133.833,128.5 133.167,129.5 132.5,130.5C 133.333,130.833 134.167,131.167 135,131.5C 138.804,130.521 142.638,130.355 146.5,131C 135.763,132.53 125.43,135.53 115.5,140C 111.722,142.112 108.222,144.612 105,147.5C 107.838,140.628 112.338,134.794 118.5,130C 123.138,128.223 127.805,127.056 132.5,126.5 Z"/></g>
<g><path style="opacity:0.141" fill="#5d554e" d="M 206.5,127.5 C 207.031,125.456 208.198,123.789 210,122.5C 209.923,124.772 208.757,126.438 206.5,127.5 Z"/></g>
<g><path style="opacity:0.784" fill="#827d6f" d="M 158.5,125.5 C 157.833,125.5 157.5,125.833 157.5,126.5C 150.903,125.853 144.236,125.686 137.5,126C 144.628,124.418 151.628,124.251 158.5,125.5 Z"/></g>
<g><path style="opacity:0.404" fill="#625a56" d="M 177.5,116.5 C 179.118,118.316 181.118,119.649 183.5,120.5C 183.5,120.833 183.5,121.167 183.5,121.5C 180.043,120.606 177.043,118.94 174.5,116.5C 174.351,115.448 174.517,114.448 175,113.5C 175.377,114.942 176.21,115.942 177.5,116.5 Z"/></g>
<g><path style="opacity:0.871" fill="#84704f" d="M 323.5,138.5 C 324.924,140.515 325.59,142.848 325.5,145.5C 324.076,143.485 323.41,141.152 323.5,138.5 Z"/></g>
<g><path style="opacity:0.98" fill="#a78f64" d="M 271.5,133.5 C 274.082,139.827 275.748,146.493 276.5,153.5C 274.974,151.55 273.974,149.217 273.5,146.5C 272.833,146.167 272.167,145.833 271.5,145.5C 270.526,147.743 270.192,150.076 270.5,152.5C 269.297,147.36 267.631,142.36 265.5,137.5C 265.672,136.508 265.338,135.842 264.5,135.5C 263.833,135.5 263.5,135.167 263.5,134.5C 263.5,134.167 263.5,133.833 263.5,133.5C 263.833,133.5 264.167,133.5 264.5,133.5C 265.496,133.586 266.329,133.252 267,132.5C 268.492,137.376 270.326,141.376 272.5,144.5C 272.833,144.167 273.167,143.833 273.5,143.5C 272.449,140.243 271.782,136.91 271.5,133.5 Z"/></g>
<g><path style="opacity:0.969" fill="#9a7f56" d="M 212.5,139.5 C 211.884,140.798 211.884,141.798 212.5,142.5C 212.5,142.833 212.5,143.167 212.5,143.5C 211.833,143.5 211.5,143.833 211.5,144.5C 210.094,144.973 209.427,145.973 209.5,147.5C 208.711,147.217 208.044,146.717 207.5,146C 208.758,144.259 209.758,142.426 210.5,140.5C 211.167,140.167 211.833,139.833 212.5,139.5 Z"/></g>
<g><path style="opacity:0.196" fill="#554c42" d="M 227.5,145.5 C 228.254,143.554 229.588,142.721 231.5,143C 230.529,144.481 229.196,145.315 227.5,145.5 Z"/></g>
<g><path style="opacity:1" fill="#e9d2a8" d="M 162.5,148.5 C 166.698,150.067 171.031,151.567 175.5,153C 178.603,154.281 181.269,156.114 183.5,158.5C 179.519,164.942 177.019,171.942 176,179.5C 175.172,188.595 175.672,197.595 177.5,206.5C 178.919,210.015 179.586,213.681 179.5,217.5C 173.026,220.249 166.36,222.082 159.5,223C 151.611,215.368 145.611,206.535 141.5,196.5C 139.804,190.129 138.804,183.629 138.5,177C 139.863,164.607 144.53,153.607 152.5,144C 154.5,143.333 156.5,143.333 158.5,144C 157.5,144.833 156.5,145.667 155.5,146.5C 157.707,147.635 160.04,148.301 162.5,148.5 Z"/></g>
<g><path style="opacity:0.027" fill="#373734" d="M 216.5,143.5 C 216.573,145.027 215.906,146.027 214.5,146.5C 214.427,144.973 215.094,143.973 216.5,143.5 Z"/></g>
<g><path style="opacity:0.871" fill="#a08c65" d="M 221.5,138.5 C 221.5,138.833 221.5,139.167 221.5,139.5C 220.833,139.5 220.5,139.833 220.5,140.5C 219.167,141.5 217.833,142.5 216.5,143.5C 215.094,143.973 214.427,144.973 214.5,146.5C 213.396,148.389 212.063,150.055 210.5,151.5C 210.167,151.5 209.833,151.5 209.5,151.5C 209.565,151.062 209.399,150.728 209,150.5C 208.292,151.381 207.458,152.047 206.5,152.5C 207.075,150.589 208.075,148.922 209.5,147.5C 210.906,147.027 211.573,146.027 211.5,144.5C 212.167,144.5 212.5,144.167 212.5,143.5C 213.167,143.5 213.5,143.167 213.5,142.5C 214.476,141.185 215.476,139.852 216.5,138.5C 218.005,141.131 218.671,140.797 218.5,137.5C 219.791,137.263 220.791,137.596 221.5,138.5 Z"/></g>
<g><path style="opacity:1" fill="#c3a56e" d="M 247.5,124.5 C 250.55,126.549 252.883,129.216 254.5,132.5C 254.427,134.027 255.094,135.027 256.5,135.5C 257.833,137.167 259.167,138.833 260.5,140.5C 260.328,141.492 260.662,142.158 261.5,142.5C 261.833,145.167 262.167,145.167 262.5,142.5C 262.598,140.447 261.931,138.78 260.5,137.5C 259.766,136.292 259.433,134.959 259.5,133.5C 259.281,132.325 259.614,131.325 260.5,130.5C 261.521,131.901 262.521,133.235 263.5,134.5C 263.5,135.167 263.833,135.5 264.5,135.5C 264.328,136.492 264.662,137.158 265.5,137.5C 265.5,138.833 265.5,140.167 265.5,141.5C 266.162,145.466 266.495,149.466 266.5,153.5C 266.81,156.713 266.477,159.713 265.5,162.5C 265.598,160.447 264.931,158.78 263.5,157.5C 263.167,157.5 262.833,157.5 262.5,157.5C 262.672,156.508 262.338,155.842 261.5,155.5C 261.672,154.508 261.338,153.842 260.5,153.5C 260.167,150.833 259.833,150.833 259.5,153.5C 259.5,154.167 259.5,154.833 259.5,155.5C 258.526,154.365 257.359,153.365 256,152.5C 255.536,153.094 255.369,153.761 255.5,154.5C 243.186,156.306 235.352,163.306 232,175.5C 231.197,181.172 230.363,186.839 229.5,192.5C 221.641,188.632 214.641,183.632 208.5,177.5C 207.701,183.501 207.034,189.501 206.5,195.5C 205.38,188.848 204.38,182.182 203.5,175.5C 203.5,174.833 203.5,174.167 203.5,173.5C 203.25,170.786 203.083,168.119 203,165.5C 203.708,166.381 204.542,167.047 205.5,167.5C 205.833,168.833 206.167,168.833 206.5,167.5C 205.488,166.128 204.488,164.795 203.5,163.5C 203.167,162.5 202.5,161.833 201.5,161.5C 201.5,161.167 201.5,160.833 201.5,160.5C 201.5,160.167 201.5,159.833 201.5,159.5C 201.783,158.711 202.283,158.044 203,157.5C 205.622,161.457 208.622,165.124 212,168.5C 212.422,166.574 213.589,165.574 215.5,165.5C 216.077,166.773 216.743,166.773 217.5,165.5C 219.11,163.275 220.443,160.941 221.5,158.5C 222.167,157.5 222.833,156.5 223.5,155.5C 223.833,155.5 224.167,155.5 224.5,155.5C 225.167,155.5 225.5,155.167 225.5,154.5C 227.074,154.063 228.241,153.063 229,151.5C 230.041,152.471 230.874,153.471 231.5,154.5C 231.56,155.043 231.893,155.376 232.5,155.5C 238.28,150.572 244.946,147.572 252.5,146.5C 252.425,143.794 252.092,141.127 251.5,138.5C 251.838,135.843 251.171,133.51 249.5,131.5C 250.872,129.38 250.205,128.38 247.5,128.5C 247.5,127.167 247.5,125.833 247.5,124.5 Z M 219.5,180.5 C 221.027,180.427 222.027,181.094 222.5,182.5C 220.973,182.573 219.973,181.906 219.5,180.5 Z"/></g>
<g><path style="opacity:0.086" fill="#52483d" d="M 258.5,147.5 C 256.314,147.489 255.481,146.489 256,144.5C 257.045,145.373 257.878,146.373 258.5,147.5 Z"/></g>
<g><path style="opacity:0.345" fill="#53483d" d="M 260.5,137.5 C 261.931,138.78 262.598,140.447 262.5,142.5C 262.167,142.5 261.833,142.5 261.5,142.5C 261.672,141.508 261.338,140.842 260.5,140.5C 260.5,139.5 260.5,138.5 260.5,137.5 Z"/></g>
<g><path style="opacity:0.318" fill="#554938" d="M 254.5,132.5 C 255.906,132.973 256.573,133.973 256.5,135.5C 255.094,135.027 254.427,134.027 254.5,132.5 Z"/></g>
<g><path style="opacity:0.055" fill="#534c41" d="M 142.5,150.5 C 142.167,150.5 141.833,150.5 141.5,150.5C 142.793,148.704 144.293,147.037 146,145.5C 145.923,147.772 144.757,149.438 142.5,150.5 Z"/></g>
<g><path style="opacity:1" fill="#d7c095" d="M 46.5,145.5 C 46.7845,147.415 46.4511,149.081 45.5,150.5C 44.5478,161.501 44.0478,172.501 44,183.5C 43.6174,182.944 43.1174,182.611 42.5,182.5C 40.8818,175.744 40.0485,168.744 40,161.5C 39.1779,163.788 38.5112,166.122 38,168.5C 37.5003,176.827 37.3336,185.16 37.5,193.5C 36.2395,190.742 35.4061,187.742 35,184.5C 34.5005,178.175 34.3338,171.842 34.5,165.5C 34.5,165.167 34.5,164.833 34.5,164.5C 35.9238,162.485 36.5905,160.152 36.5,157.5C 37.531,151.733 39.531,146.399 42.5,141.5C 43.9311,141.119 44.7645,140.119 45,138.5C 46.3515,140.594 46.8515,142.927 46.5,145.5 Z"/></g>
<g><path style="opacity:0.127" fill="#333a47" d="M 169.5,148.5 C 170.274,147.853 171.274,147.52 172.5,147.5C 176.149,148.33 179.815,148.996 183.5,149.5C 184.9,150.1 185.9,151.1 186.5,152.5C 186.265,153.097 185.765,153.43 185,153.5C 179.945,151.445 174.778,149.779 169.5,148.5 Z"/></g>
<g><path style="opacity:0.961" fill="#978566" d="M 221.5,144.5 C 221.617,146.484 220.95,148.15 219.5,149.5C 220.133,151.519 221.133,151.853 222.5,150.5C 222.5,151.167 222.5,151.833 222.5,152.5C 221.761,152.369 221.094,152.536 220.5,153C 219.303,155.015 217.97,156.849 216.5,158.5C 216.66,156.801 216.494,155.134 216,153.5C 215.617,154.056 215.117,154.389 214.5,154.5C 216.062,150.608 218.395,147.275 221.5,144.5 Z"/></g>
<g><path style="opacity:0.991" fill="#a99676" d="M 2.5,127.5 C 1.63379,143.483 1.30045,159.483 1.5,175.5C 0.833333,172.167 0.166667,168.833 -0.5,165.5C -0.5,158.833 -0.5,152.167 -0.5,145.5C 0.261092,139.466 1.26109,133.466 2.5,127.5 Z"/></g>
<g><path style="opacity:0.58" fill="#665e4d" d="M 224.5,148.5 C 225.167,148.5 225.5,148.833 225.5,149.5C 225.166,151.335 225.166,153.002 225.5,154.5C 225.5,155.167 225.167,155.5 224.5,155.5C 224.167,154.167 223.833,154.167 223.5,155.5C 221.204,155.196 220.871,154.196 222.5,152.5C 223.833,151.833 223.833,151.167 222.5,150.5C 222.833,149.5 223.5,148.833 224.5,148.5 Z"/></g>
<g><path style="opacity:0.016" fill="#4a413d" d="M 106.5,154.5 C 106.842,155.338 107.508,155.672 108.5,155.5C 107.614,156.776 106.614,156.776 105.5,155.5C 105.624,154.893 105.957,154.56 106.5,154.5 Z"/></g>
<g><path style="opacity:0.157" fill="#514743" d="M 209.5,151.5 C 209.833,151.5 210.167,151.5 210.5,151.5C 210.703,153.39 210.037,154.89 208.5,156C 209.566,158.012 210.9,158.512 212.5,157.5C 212.719,158.675 212.386,159.675 211.5,160.5C 207.079,158.253 206.413,155.253 209.5,151.5 Z"/></g>
<g><path style="opacity:1" fill="#ead2a9" d="M 274.5,219.5 C 261.675,240.989 244.008,257.323 221.5,268.5C 238.5,250.178 249.666,228.178 255,202.5C 255.667,196.167 255.667,189.833 255,183.5C 248.888,207.259 236.055,226.426 216.5,241C 208.939,245.449 200.939,248.783 192.5,251C 196.048,252.089 199.715,252.589 203.5,252.5C 208.849,252.073 214.183,251.906 219.5,252C 208.525,263.49 195.192,270.823 179.5,274C 168.99,277.143 158.323,277.976 147.5,276.5C 158.414,265.339 165.081,252.005 167.5,236.5C 189.004,230.995 202.004,217.328 206.5,195.5C 207.034,189.501 207.701,183.501 208.5,177.5C 214.641,183.632 221.641,188.632 229.5,192.5C 230.363,186.839 231.197,181.172 232,175.5C 235.352,163.306 243.186,156.306 255.5,154.5C 264.509,182.485 261.842,209.485 247.5,235.5C 247.833,235.833 248.167,236.167 248.5,236.5C 265.908,223.668 277.908,207.001 284.5,186.5C 287.695,175.871 289.195,164.871 289,153.5C 290.414,160.785 290.747,168.118 290,175.5C 288.663,182.175 287.329,188.842 286,195.5C 282.433,203.633 278.6,211.633 274.5,219.5 Z M 219.5,180.5 C 221.027,180.427 222.027,181.094 222.5,182.5C 220.973,182.573 219.973,181.906 219.5,180.5 Z M 264.5,197.5 C 264.405,199.786 263.738,201.786 262.5,203.5C 262.5,202.167 262.5,200.833 262.5,199.5C 263.167,198.833 263.833,198.167 264.5,197.5 Z"/></g>
<g><path style="opacity:1" fill="#a58a57" d="M 325.5,145.5 C 328.071,151.804 329.404,158.47 329.5,165.5C 327.017,159.192 325.684,152.525 325.5,145.5 Z"/></g>
<g><path style="opacity:0.118" fill="#443d36" d="M 214.5,154.5 C 214.573,156.027 213.906,157.027 212.5,157.5C 212.427,155.973 213.094,154.973 214.5,154.5 Z"/></g>
<g><path style="opacity:0.11" fill="#4c4340" d="M 235.5,158.5 C 238.333,154.756 242,152.589 246.5,152C 242.778,154.19 239.111,156.356 235.5,158.5 Z"/></g>
<g><path style="opacity:0.127" fill="#353535" d="M 265.5,141.5 C 267.034,146.814 268.367,152.314 269.5,158C 268.713,160.099 268.38,162.266 268.5,164.5C 267.209,164.737 266.209,164.404 265.5,163.5C 266.777,162.306 267.444,160.64 267.5,158.5C 267.493,156.631 267.16,154.964 266.5,153.5C 266.495,149.466 266.162,145.466 265.5,141.5 Z"/></g>
<g><path style="opacity:0.024" fill="#453e39" d="M 201.5,159.5 C 201.5,159.833 201.5,160.167 201.5,160.5C 200.833,160.5 200.5,160.833 200.5,161.5C 199.427,160.749 199.26,159.749 200,158.5C 200.383,159.056 200.883,159.389 201.5,159.5 Z"/></g>
<g><path style="opacity:0.4" fill="#4c423f" d="M 221.5,158.5 C 220.443,160.941 219.11,163.275 217.5,165.5C 216.743,166.773 216.077,166.773 215.5,165.5C 215.5,165.167 215.5,164.833 215.5,164.5C 217.5,162.5 219.5,160.5 221.5,158.5 Z"/></g>
<g><path style="opacity:0.141" fill="#675943" d="M 282.5,146.5 C 283.222,146.918 283.722,147.584 284,148.5C 284.822,156.012 284.655,163.345 283.5,170.5C 283.736,162.458 283.403,154.458 282.5,146.5 Z"/></g>
<g><path style="opacity:0.047" fill="#3b3637" d="M 215.5,160.5 C 215.926,161.528 215.926,162.861 215.5,164.5C 212.833,163.167 212.833,161.833 215.5,160.5 Z"/></g>
<g><path style="opacity:0.212" fill="#534e49" d="M 223.5,162.5 C 223.312,160.897 223.812,159.563 225,158.5C 225.348,160.14 224.848,161.473 223.5,162.5 Z"/></g>
<g><path style="opacity:0.635" fill="#887968" d="M 36.5,157.5 C 36.5905,160.152 35.9238,162.485 34.5,164.5C 34.4095,161.848 35.0762,159.515 36.5,157.5 Z"/></g>
<g><path style="opacity:0.251" fill="#3b3736" d="M 201.5,161.5 C 202.5,161.833 203.167,162.5 203.5,163.5C 204.488,164.795 205.488,166.128 206.5,167.5C 206.167,167.5 205.833,167.5 205.5,167.5C 204.542,167.047 203.708,166.381 203,165.5C 203.083,168.119 203.25,170.786 203.5,173.5C 202.833,173.5 202.5,173.833 202.5,174.5C 202.167,174.5 201.833,174.5 201.5,174.5C 201.495,170.466 201.162,166.466 200.5,162.5C 201.167,162.5 201.5,162.167 201.5,161.5 Z"/></g>
<g><path style="opacity:1" fill="#e4cc97" d="M 5.5,124.5 C 4.65608,128.099 4.32274,131.766 4.5,135.5C 4.5,135.833 4.5,136.167 4.5,136.5C 3.34075,147.659 3.17408,158.992 4,170.5C 4.1077,174.465 4.94103,178.132 6.5,181.5C 7.34141,183.379 7.67474,185.379 7.5,187.5C 7.40953,190.152 8.07619,192.485 9.5,194.5C 9.5,194.833 9.5,195.167 9.5,195.5C 10.1346,198.493 10.3013,201.493 10,204.5C 8.39074,202.732 6.89074,200.399 5.5,197.5C 5.42254,193.123 4.92254,188.79 4,184.5C 3.61742,183.944 3.11742,183.611 2.5,183.5C 1.52693,181.052 1.1936,178.385 1.5,175.5C 1.30045,159.483 1.63379,143.483 2.5,127.5C 2.32526,125.379 2.65859,123.379 3.5,121.5C 4.11742,121.389 4.61742,121.056 5,120.5C 5.49001,121.793 5.65668,123.127 5.5,124.5 Z"/></g>
<g><path style="opacity:0.886" fill="#877a64" d="M 24.5,160.5 C 25.6167,164.295 26.2833,168.295 26.5,172.5C 24.8643,168.79 24.1977,164.79 24.5,160.5 Z"/></g>
<g><path style="opacity:0.047" fill="#2b2c3f" d="M 221.5,165.5 C 221.833,165.5 222.167,165.5 222.5,165.5C 222.108,167.179 221.608,168.846 221,170.5C 218.99,168.604 219.157,166.937 221.5,165.5 Z"/></g>
<g><path style="opacity:1" fill="#e8d0a8" d="M 197.5,187.5 C 196.522,196.785 192.856,204.785 186.5,211.5C 186.349,203.935 186.349,196.268 186.5,188.5C 186.334,182.491 186.501,176.491 187,170.5C 188.662,165.846 191.329,161.846 195,158.5C 197.24,168.023 198.073,177.69 197.5,187.5 Z"/></g>
<g><path style="opacity:0.937" fill="#81735b" d="M 4.5,136.5 C 4.07751,151.566 4.74418,166.566 6.5,181.5C 4.94103,178.132 4.1077,174.465 4,170.5C 3.17408,158.992 3.34075,147.659 4.5,136.5 Z"/></g>
<g><path style="opacity:1" fill="#cfb078" d="M 162.5,148.5 C 164.833,148.5 167.167,148.5 169.5,148.5C 174.778,149.779 179.945,151.445 185,153.5C 185.765,153.43 186.265,153.097 186.5,152.5C 187.156,151.722 187.989,151.056 189,150.5C 189.5,150.833 190,151.167 190.5,151.5C 188.976,153.858 186.976,155.691 184.5,157C 185.516,157.519 186.182,158.353 186.5,159.5C 184.946,161.944 183.946,164.611 183.5,167.5C 181.59,170.452 180.59,173.786 180.5,177.5C 179.671,185.657 179.171,193.99 179,202.5C 178.79,204.058 178.29,205.391 177.5,206.5C 175.672,197.595 175.172,188.595 176,179.5C 177.019,171.942 179.519,164.942 183.5,158.5C 181.269,156.114 178.603,154.281 175.5,153C 171.031,151.567 166.698,150.067 162.5,148.5 Z"/></g>
<g><path style="opacity:0.124" fill="#4f4b40" d="M 228.5,170.5 C 228.5,171.167 228.833,171.5 229.5,171.5C 229.672,172.492 229.338,173.158 228.5,173.5C 228.5,172.833 228.167,172.5 227.5,172.5C 227.328,171.508 227.662,170.842 228.5,170.5 Z"/></g>
<g><path style="opacity:0.11" fill="#463e31" d="M 296.5,177.5 C 296.784,179.415 296.451,181.081 295.5,182.5C 295.806,179.615 295.473,176.948 294.5,174.5C 295.06,172.199 295.56,169.866 296,167.5C 296.498,170.817 296.665,174.15 296.5,177.5 Z"/></g>
<g><path style="opacity:0.047" fill="#524e44" d="M 227.5,172.5 C 227.328,173.492 227.662,174.158 228.5,174.5C 228.737,175.791 228.404,176.791 227.5,177.5C 227.672,176.508 227.338,175.842 226.5,175.5C 226.263,174.209 226.596,173.209 227.5,172.5 Z"/></g>
<g><path style="opacity:0.477" fill="#685f50" d="M 183.5,167.5 C 183.5,168.5 183.5,169.5 183.5,170.5C 182.737,180.609 182.404,190.609 182.5,200.5C 182.07,192.901 181.403,185.235 180.5,177.5C 180.59,173.786 181.59,170.452 183.5,167.5 Z"/></g>
<g><path style="opacity:0.652" fill="#786952" d="M 201.5,174.5 C 201.833,174.5 202.167,174.5 202.5,174.5C 202.181,179.363 202.514,184.03 203.5,188.5C 203.737,189.791 203.404,190.791 202.5,191.5C 202.167,191.5 201.833,191.5 201.5,191.5C 201.5,186.167 201.5,180.833 201.5,175.5C 201.5,175.167 201.5,174.833 201.5,174.5 Z"/></g>
<g><path style="opacity:0.999" fill="#c0a163" d="M 311.5,179.5 C 311.66,177.801 311.494,176.134 311,174.5C 310.667,175.5 310.333,176.5 310,177.5C 309.502,174.518 309.335,171.518 309.5,168.5C 308.878,154.84 307.878,154.507 306.5,167.5C 306.5,168.833 306.5,170.167 306.5,171.5C 306.552,173.903 306.219,176.236 305.5,178.5C 304.343,181.273 303.676,184.273 303.5,187.5C 302.771,192.351 301.438,197.018 299.5,201.5C 298.292,202.234 296.959,202.567 295.5,202.5C 295.5,197.833 295.5,193.167 295.5,188.5C 295.5,186.5 295.5,184.5 295.5,182.5C 296.451,181.081 296.784,179.415 296.5,177.5C 297.358,171.983 298.191,166.317 299,160.5C 300.25,165.42 300.75,170.42 300.5,175.5C 300.338,177.527 300.505,179.527 301,181.5C 302,177.167 303,172.833 304,168.5C 304.168,158.151 304.668,147.817 305.5,137.5C 312.192,150.928 314.192,164.928 311.5,179.5 Z"/></g>
<g><path style="opacity:0.004" fill="#262126" d="M 306.5,167.5 C 306.833,167.5 307.167,167.5 307.5,167.5C 307.328,168.492 307.662,169.158 308.5,169.5C 308.795,171.735 308.461,173.735 307.5,175.5C 307.768,173.901 307.434,172.568 306.5,171.5C 306.5,170.167 306.5,168.833 306.5,167.5 Z"/></g>
<g><path style="opacity:0.447" fill="#706348" d="M 309.5,168.5 C 309.167,168.5 308.833,168.5 308.5,168.5C 308.336,162.833 308.003,162.5 307.5,167.5C 307.167,167.5 306.833,167.5 306.5,167.5C 307.878,154.507 308.878,154.84 309.5,168.5 Z"/></g>
<g><path style="opacity:0.043" fill="#3a342e" d="M 305.5,178.5 C 305.785,181.829 305.118,184.829 303.5,187.5C 303.676,184.273 304.343,181.273 305.5,178.5 Z"/></g>
<g><path style="opacity:1" fill="#a3906f" d="M 2.5,183.5 C 3.11742,183.611 3.61742,183.944 4,184.5C 4.92254,188.79 5.42254,193.123 5.5,197.5C 3.75376,193.111 2.75376,188.444 2.5,183.5 Z"/></g>
<g><path style="opacity:0.694" fill="#695e50" d="M 226.5,177.5 C 226.5,178.167 226.833,178.5 227.5,178.5C 227.813,181.247 227.48,183.914 226.5,186.5C 225.478,186.145 224.811,185.478 224.5,184.5C 223.662,184.158 223.328,183.492 223.5,182.5C 224.5,182.5 225.5,182.5 226.5,182.5C 226.737,181.209 226.404,180.209 225.5,179.5C 225.328,178.508 225.662,177.842 226.5,177.5 Z"/></g>
<g><path style="opacity:1" fill="#be9e5e" d="M 312.5,116.5 C 317.674,122.982 321.34,130.316 323.5,138.5C 323.41,141.152 324.076,143.485 325.5,145.5C 325.684,152.525 327.017,159.192 329.5,165.5C 329.833,165.5 330.167,165.5 330.5,165.5C 330.5,173.167 330.5,180.833 330.5,188.5C 329.441,194.789 328.108,201.123 326.5,207.5C 325.008,210.454 323.008,213.12 320.5,215.5C 322.02,218.303 321.353,220.47 318.5,222C 319.337,223.011 319.67,224.178 319.5,225.5C 318.325,225.281 317.325,225.614 316.5,226.5C 317.309,228.071 317.643,229.738 317.5,231.5C 317.5,231.833 317.5,232.167 317.5,232.5C 316.504,232.586 315.671,232.252 315,231.5C 314.529,233.246 313.862,234.913 313,236.5C 312.51,235.207 312.343,233.873 312.5,232.5C 316.842,222.811 320.342,212.811 323,202.5C 329.253,175.616 326.086,149.95 313.5,125.5C 312.614,122.386 312.28,119.386 312.5,116.5 Z"/></g>
<g><path style="opacity:1" fill="#cfb586" d="M 34.5,165.5 C 34.3338,171.842 34.5005,178.175 35,184.5C 35.4061,187.742 36.2395,190.742 37.5,193.5C 39.4416,204.947 41.6082,216.281 44,227.5C 37.1187,213.968 30.9521,200.301 25.5,186.5C 25.2505,183.998 24.9172,181.498 24.5,179C 25.8846,177.985 26.5513,175.819 26.5,172.5C 28.2982,178.687 29.9649,185.021 31.5,191.5C 31.5,192.167 31.8333,192.5 32.5,192.5C 32.8333,195.167 33.1667,195.167 33.5,192.5C 33.5,185.833 33.5,179.167 33.5,172.5C 33.1984,169.941 33.5318,167.607 34.5,165.5 Z"/></g>
<g><path style="opacity:0.412" fill="#5f5345" d="M 33.5,172.5 C 33.5,179.167 33.5,185.833 33.5,192.5C 33.1667,192.5 32.8333,192.5 32.5,192.5C 31.8333,192.5 31.5,192.167 31.5,191.5C 32.1667,185.167 32.8333,178.833 33.5,172.5 Z"/></g>
<g><path style="opacity:0.612" fill="#776855" d="M 7.5,187.5 C 8.92381,189.515 9.59047,191.848 9.5,194.5C 8.07619,192.485 7.40953,190.152 7.5,187.5 Z"/></g>
<g><path style="opacity:0.055" fill="#3e3d39" d="M 201.5,192.5 C 201.328,193.492 201.662,194.158 202.5,194.5C 202.672,195.492 202.338,196.158 201.5,196.5C 201.5,195.833 201.167,195.5 200.5,195.5C 200.263,194.209 200.596,193.209 201.5,192.5 Z"/></g>
<g><path style="opacity:1" fill="#937a49" d="M 295.5,188.5 C 295.5,193.167 295.5,197.833 295.5,202.5C 296.959,202.567 298.292,202.234 299.5,201.5C 298.426,204.645 297.093,207.645 295.5,210.5C 294.523,207.713 294.19,204.713 294.5,201.5C 294.182,196.968 294.515,192.634 295.5,188.5 Z"/></g>
<g><path style="opacity:1" fill="#9b8566" d="M 21.5,202.5 C 22.4734,202.987 23.4734,203.487 24.5,204C 23.1669,205.84 23.3335,206.34 25,205.5C 25.5,206 26,206.5 26.5,207C 25.0267,207.71 24.3601,208.876 24.5,210.5C 22.9802,208.11 21.9802,205.443 21.5,202.5 Z"/></g>
<g><path style="opacity:1" fill="#bda67d" d="M 14.5,142.5 C 14.3338,148.509 14.5005,154.509 15,160.5C 15.2492,159.376 15.7492,158.376 16.5,157.5C 18.4158,168.644 20.7491,179.644 23.5,190.5C 25.2188,198.992 27.5522,207.325 30.5,215.5C 29.1634,214.685 28.1634,213.518 27.5,212C 26.552,211.517 25.552,211.351 24.5,211.5C 24.5,211.167 24.5,210.833 24.5,210.5C 24.3601,208.876 25.0267,207.71 26.5,207C 26,206.5 25.5,206 25,205.5C 23.3335,206.34 23.1669,205.84 24.5,204C 23.4734,203.487 22.4734,202.987 21.5,202.5C 14.8414,182.892 12.5081,162.892 14.5,142.5 Z"/></g>
<g><path style="opacity:1" fill="#baa275" d="M 45.5,150.5 C 43.9976,170.152 46.8309,189.152 54,207.5C 56.4085,213.565 58.9085,219.565 61.5,225.5C 60.2502,225.423 59.4169,224.756 59,223.5C 58.5065,225.134 58.3398,226.801 58.5,228.5C 50.363,214.208 45.0297,198.875 42.5,182.5C 43.1174,182.611 43.6174,182.944 44,183.5C 44.0478,172.501 44.5478,161.501 45.5,150.5 Z"/></g>
<g><path style="opacity:1" fill="#bc9d63" d="M 183.5,170.5 C 184.222,170.918 184.722,171.584 185,172.5C 185.173,178.016 185.673,183.349 186.5,188.5C 186.349,196.268 186.349,203.935 186.5,211.5C 192.856,204.785 196.522,196.785 197.5,187.5C 198.169,182.604 199.002,177.604 200,172.5C 200.232,173.737 200.732,174.737 201.5,175.5C 201.5,180.833 201.5,186.167 201.5,191.5C 201.5,191.833 201.5,192.167 201.5,192.5C 200.596,193.209 200.263,194.209 200.5,195.5C 200.5,196.5 200.5,197.5 200.5,198.5C 199.596,199.209 199.263,200.209 199.5,201.5C 190.85,216.768 177.683,225.768 160,228.5C 149.44,221.393 142.273,211.727 138.5,199.5C 137.943,197.051 137.943,194.718 138.5,192.5C 139.15,194.184 140.15,195.517 141.5,196.5C 145.611,206.535 151.611,215.368 159.5,223C 166.36,222.082 173.026,220.249 179.5,217.5C 179.586,213.681 178.919,210.015 177.5,206.5C 178.29,205.391 178.79,204.058 179,202.5C 179.171,193.99 179.671,185.657 180.5,177.5C 180.5,185.5 180.5,193.5 180.5,201.5C 180.491,203.308 180.991,204.975 182,206.5C 182.483,205.552 182.649,204.552 182.5,203.5C 182.5,202.5 182.5,201.5 182.5,200.5C 182.404,190.609 182.737,180.609 183.5,170.5 Z M 180.5,177.5 C 181.403,185.235 182.07,192.901 182.5,200.5C 182.5,201.5 182.5,202.5 182.5,203.5C 181.833,202.833 181.167,202.167 180.5,201.5C 180.5,193.5 180.5,185.5 180.5,177.5 Z"/></g>
<g><path style="opacity:0.075" fill="#3f3735" d="M 180.5,201.5 C 181.167,202.167 181.833,202.833 182.5,203.5C 182.649,204.552 182.483,205.552 182,206.5C 180.991,204.975 180.491,203.308 180.5,201.5 Z"/></g>
<g><path style="opacity:0.808" fill="#655133" d="M 294.5,201.5 C 294.19,204.713 294.523,207.713 295.5,210.5C 295.291,211.922 294.791,213.255 294,214.5C 293.308,213.975 292.808,213.308 292.5,212.5C 293.104,208.697 293.77,205.031 294.5,201.5 Z"/></g>
<g><path style="opacity:1" fill="#bb9c5f" d="M 276.5,153.5 C 278.132,167.203 277.632,180.87 275,194.5C 273.459,198.956 271.626,203.289 269.5,207.5C 269.846,208.696 270.346,208.696 271,207.5C 275.211,199.34 278.711,191.006 281.5,182.5C 281.215,184.288 281.548,185.955 282.5,187.5C 283.183,187.137 283.85,186.804 284.5,186.5C 277.908,207.001 265.908,223.668 248.5,236.5C 248.167,236.167 247.833,235.833 247.5,235.5C 261.842,209.485 264.509,182.485 255.5,154.5C 255.369,153.761 255.536,153.094 256,152.5C 257.359,153.365 258.526,154.365 259.5,155.5C 259.992,157.819 260.992,159.819 262.5,161.5C 262.5,161.833 262.5,162.167 262.5,162.5C 263.751,174.84 263.751,187.174 262.5,199.5C 262.5,200.833 262.5,202.167 262.5,203.5C 263.738,201.786 264.405,199.786 264.5,197.5C 264.833,197.5 265.167,197.5 265.5,197.5C 267.655,195.383 268.655,192.716 268.5,189.5C 269.793,180.2 270.793,170.867 271.5,161.5C 271.721,158.721 271.388,156.054 270.5,153.5C 270.5,153.167 270.5,152.833 270.5,152.5C 270.192,150.076 270.526,147.743 271.5,145.5C 272.167,145.833 272.833,146.167 273.5,146.5C 273.974,149.217 274.974,151.55 276.5,153.5 Z M 264.5,197.5 C 264.405,199.786 263.738,201.786 262.5,203.5C 262.5,202.167 262.5,200.833 262.5,199.5C 263.167,198.833 263.833,198.167 264.5,197.5 Z"/></g>
<g><path style="opacity:0.349" fill="#60513d" d="M 261.5,204.5 C 261.5,205.167 261.833,205.5 262.5,205.5C 262.205,207.423 261.372,209.09 260,210.5C 259.595,208.225 260.095,206.225 261.5,204.5 Z"/></g>
<g><path style="opacity:0.816" fill="#6f5e43" d="M 268.5,189.5 C 268.655,192.716 267.655,195.383 265.5,197.5C 266.129,194.603 267.129,191.936 268.5,189.5 Z"/></g>
<g><path style="opacity:0.7" fill="#726248" d="M 262.5,162.5 C 265.634,173.521 265.968,184.688 263.5,196C 264.056,196.383 264.389,196.883 264.5,197.5C 263.833,198.167 263.167,198.833 262.5,199.5C 263.751,187.174 263.751,174.84 262.5,162.5 Z"/></g>
<g><path style="opacity:0.557" fill="#8b7856" d="M 266.5,153.5 C 267.16,154.964 267.493,156.631 267.5,158.5C 267.444,160.64 266.777,162.306 265.5,163.5C 265.5,163.167 265.5,162.833 265.5,162.5C 266.477,159.713 266.81,156.713 266.5,153.5 Z"/></g>
<g><path style="opacity:0.298" fill="#524535" d="M 263.5,157.5 C 264.931,158.78 265.598,160.447 265.5,162.5C 264.069,161.22 263.402,159.553 263.5,157.5 Z"/></g>
<g><path style="opacity:0.013" fill="#37302d" d="M 270.5,153.5 C 271.388,156.054 271.721,158.721 271.5,161.5C 270.734,159.316 270.067,156.982 269.5,154.5C 269.624,153.893 269.957,153.56 270.5,153.5 Z"/></g>
<g><path style="opacity:0.561" fill="#5c5043" d="M 259.5,153.5 C 259.833,153.5 260.167,153.5 260.5,153.5C 260.328,154.492 260.662,155.158 261.5,155.5C 261.328,156.492 261.662,157.158 262.5,157.5C 262.5,158.833 262.5,160.167 262.5,161.5C 260.992,159.819 259.992,157.819 259.5,155.5C 259.5,154.833 259.5,154.167 259.5,153.5 Z"/></g>
<g><path style="opacity:1" fill="#9e8652" d="M 326.5,207.5 C 324.66,216.03 321.66,224.03 317.5,231.5C 317.643,229.738 317.309,228.071 316.5,226.5C 317.325,225.614 318.325,225.281 319.5,225.5C 319.67,224.178 319.337,223.011 318.5,222C 321.353,220.47 322.02,218.303 320.5,215.5C 323.008,213.12 325.008,210.454 326.5,207.5 Z"/></g>
<g><path style="opacity:1" fill="#bc9b5f" d="M 203.5,175.5 C 204.38,182.182 205.38,188.848 206.5,195.5C 202.004,217.328 189.004,230.995 167.5,236.5C 165.081,252.005 158.414,265.339 147.5,276.5C 158.323,277.976 168.99,277.143 179.5,274C 195.192,270.823 208.525,263.49 219.5,252C 214.183,251.906 208.849,252.073 203.5,252.5C 199.715,252.589 196.048,252.089 192.5,251C 200.939,248.783 208.939,245.449 216.5,241C 236.055,226.426 248.888,207.259 255,183.5C 255.667,189.833 255.667,196.167 255,202.5C 249.666,228.178 238.5,250.178 221.5,268.5C 244.008,257.323 261.675,240.989 274.5,219.5C 277.493,218.085 279.326,215.751 280,212.5C 280.333,212.833 280.667,213.167 281,213.5C 281.977,211.26 282.477,208.927 282.5,206.5C 283.5,206.5 284.5,206.5 285.5,206.5C 271.591,240.242 247.591,263.742 213.5,277C 208.293,279.014 202.96,280.514 197.5,281.5C 195.302,281.591 194.969,280.925 196.5,279.5C 224.067,264.694 241.234,242.028 248,211.5C 240.65,225.851 230.15,237.351 216.5,246C 217.793,246.49 219.127,246.657 220.5,246.5C 222.199,246.34 223.866,246.506 225.5,247C 226.252,247.671 226.586,248.504 226.5,249.5C 218.901,260.985 208.568,269.152 195.5,274C 179.232,280.54 162.565,282.707 145.5,280.5C 143.631,279.835 141.631,279.169 139.5,278.5C 139.863,277.817 140.196,277.15 140.5,276.5C 149.505,268.487 156.172,258.82 160.5,247.5C 164.064,243.624 165.398,238.957 164.5,233.5C 166.786,233.405 168.786,232.738 170.5,231.5C 174.789,229.58 179.123,227.58 183.5,225.5C 185.749,224.92 187.415,223.587 188.5,221.5C 193.721,215.727 197.388,209.06 199.5,201.5C 200.404,200.791 200.737,199.791 200.5,198.5C 201.338,198.158 201.672,197.492 201.5,196.5C 202.338,196.158 202.672,195.492 202.5,194.5C 202.5,193.5 202.5,192.5 202.5,191.5C 203.404,190.791 203.737,189.791 203.5,188.5C 203.5,184.167 203.5,179.833 203.5,175.5 Z"/></g>
<g><path style="opacity:0.075" fill="#494537" d="M 249.5,210.5 C 249.5,209.833 249.167,209.5 248.5,209.5C 249.046,207.697 249.88,206.03 251,204.5C 251.405,206.775 250.905,208.775 249.5,210.5 Z"/></g>
<g><path style="opacity:0.38" fill="#745f44" d="M 263.5,216.5 C 264.525,216.897 264.692,217.563 264,218.5C 262.333,220.167 260.667,221.833 259,223.5C 258.333,222.833 258.333,222.167 259,221.5C 260.707,219.963 262.207,218.296 263.5,216.5 Z"/></g>
<g><path style="opacity:0.678" fill="#7e6c53" d="M 188.5,221.5 C 187.415,223.587 185.749,224.92 183.5,225.5C 184.585,223.413 186.251,222.08 188.5,221.5 Z"/></g>
<g><path style="opacity:1" fill="#bca068" d="M 73.5,237.5 C 74.6642,240.561 74.6642,243.228 73.5,245.5C 72.3501,244.15 71.6834,244.316 71.5,246C 72.4223,248.505 72.9223,251.005 73,253.5C 67.1332,245.767 62.2999,237.433 58.5,228.5C 58.3398,226.801 58.5065,225.134 59,223.5C 59.4169,224.756 60.2502,225.423 61.5,225.5C 62.6737,226.514 63.3404,227.847 63.5,229.5C 63.3284,230.492 63.6618,231.158 64.5,231.5C 64.5,231.833 64.5,232.167 64.5,232.5C 65.0464,234.303 65.8797,235.97 67,237.5C 67.405,235.225 66.905,233.225 65.5,231.5C 65.5,231.167 65.5,230.833 65.5,230.5C 65.7678,228.901 65.4345,227.568 64.5,226.5C 63.5036,221.537 63.3369,216.537 64,211.5C 64.414,211.043 64.914,210.709 65.5,210.5C 67.3943,219.747 70.061,228.747 73.5,237.5 Z"/></g>
<g><path style="opacity:0.122" fill="#50453c" d="M 64.5,226.5 C 65.4345,227.568 65.7678,228.901 65.5,230.5C 64.8333,230.5 64.5,230.833 64.5,231.5C 63.6618,231.158 63.3284,230.492 63.5,229.5C 64.404,228.791 64.7373,227.791 64.5,226.5 Z"/></g>
<g><path style="opacity:1" fill="#b99d69" d="M 9.5,195.5 C 22.2186,235.864 46.2186,267.531 81.5,290.5C 81.5,290.833 81.5,291.167 81.5,291.5C 79.5648,292.15 77.5648,292.483 75.5,292.5C 75.7847,288.962 74.118,287.129 70.5,287C 72.3008,286.683 72.6341,286.016 71.5,285C 70.5509,284.383 69.7175,284.549 69,285.5C 68.4304,282.156 67.2638,281.823 65.5,284.5C 54.5213,276.056 44.5213,266.556 35.5,256C 34.552,255.517 33.552,255.351 32.5,255.5C 19.2139,238.256 10.2139,218.923 5.5,197.5C 6.89074,200.399 8.39074,202.732 10,204.5C 10.3013,201.493 10.1346,198.493 9.5,195.5 Z"/></g>
<g><path style="opacity:1" fill="#b49459" d="M 32.5,255.5 C 33.552,255.351 34.552,255.517 35.5,256C 44.5213,266.556 54.5213,276.056 65.5,284.5C 67.2638,281.823 68.4304,282.156 69,285.5C 69.7175,284.549 70.5509,284.383 71.5,285C 72.6341,286.016 72.3008,286.683 70.5,287C 74.118,287.129 75.7847,288.962 75.5,292.5C 77.5648,292.483 79.5648,292.15 81.5,291.5C 81.6043,293.973 82.6043,294.639 84.5,293.5C 86.9793,295.076 89.646,296.076 92.5,296.5C 94.153,296.66 95.4863,297.326 96.5,298.5C 97.7804,299.931 99.4471,300.598 101.5,300.5C 114.561,305.76 127.894,309.76 141.5,312.5C 138.751,312.274 136.084,312.607 133.5,313.5C 132.304,313.154 132.304,312.654 133.5,312C 130.416,311.369 127.75,312.202 125.5,314.5C 126.243,315.182 126.909,315.849 127.5,316.5C 125.214,316.405 123.214,315.738 121.5,314.5C 119.485,313.076 117.152,312.41 114.5,312.5C 112.485,311.076 110.152,310.41 107.5,310.5C 94.1254,305.981 81.7921,299.647 70.5,291.5C 70.0269,290.094 69.0269,289.427 67.5,289.5C 53.9016,280.236 42.235,268.903 32.5,255.5 Z"/></g>
<g><path style="opacity:1" fill="#be9d61" d="M 308.5,168.5 C 308.833,168.5 309.167,168.5 309.5,168.5C 309.335,171.518 309.502,174.518 310,177.5C 310.333,176.5 310.667,175.5 311,174.5C 311.494,176.134 311.66,177.801 311.5,179.5C 309.056,201.012 300.889,220.012 287,236.5C 243.091,284.609 189.258,301.443 125.5,287C 101.795,281.001 84.4616,267.167 73.5,245.5C 74.6642,243.228 74.6642,240.561 73.5,237.5C 75.341,239.849 76.6743,242.515 77.5,245.5C 77.427,247.027 78.0937,248.027 79.5,248.5C 81.3998,250.619 83.0664,252.953 84.5,255.5C 84.427,257.027 85.0937,258.027 86.5,258.5C 98.2984,271.231 112.632,279.565 129.5,283.5C 129.611,284.117 129.944,284.617 130.5,285C 134.466,285.828 138.466,286.328 142.5,286.5C 143.167,286.5 143.833,286.5 144.5,286.5C 150.419,288.045 156.586,288.711 163,288.5C 167.68,288.499 172.18,288.166 176.5,287.5C 184.546,286.791 192.546,285.791 200.5,284.5C 203.152,284.59 205.485,283.924 207.5,282.5C 247.018,270.668 277.185,247.002 298,211.5C 303.043,199.995 306.21,187.995 307.5,175.5C 308.461,173.735 308.795,171.735 308.5,169.5C 308.5,169.167 308.5,168.833 308.5,168.5 Z"/></g>
<g><path style="opacity:0.314" fill="#4c3c2a" d="M 67.5,289.5 C 69.0269,289.427 70.0269,290.094 70.5,291.5C 68.9731,291.573 67.9731,290.906 67.5,289.5 Z"/></g>
<g><path style="opacity:1" fill="#766144" d="M 81.5,290.5 C 85.3346,292.25 89.0012,294.25 92.5,296.5C 89.646,296.076 86.9793,295.076 84.5,293.5C 82.6043,294.639 81.6043,293.973 81.5,291.5C 81.5,291.167 81.5,290.833 81.5,290.5 Z"/></g>
<g><path style="opacity:0.118" fill="#372c20" d="M 96.5,298.5 C 98.5529,298.402 100.22,299.069 101.5,300.5C 99.4471,300.598 97.7804,299.931 96.5,298.5 Z"/></g>
<g><path style="opacity:1" fill="#b9995d" d="M 24.5,211.5 C 25.552,211.351 26.552,211.517 27.5,212C 28.1634,213.518 29.1634,214.685 30.5,215.5C 51.2742,260.254 85.6075,289.088 133.5,302C 188.686,314.233 237.852,302.4 281,266.5C 280.865,269.22 280.532,271.886 280,274.5C 293.515,262.418 304.348,248.418 312.5,232.5C 312.343,233.873 312.51,235.207 313,236.5C 313.862,234.913 314.529,233.246 315,231.5C 315.671,232.252 316.504,232.586 317.5,232.5C 300.13,266.37 274.13,291.203 239.5,307C 235.835,308.278 232.168,309.444 228.5,310.5C 225.478,310.196 222.478,309.696 219.5,309C 219.764,307.258 221.097,306.091 223.5,305.5C 223.842,304.662 224.508,304.328 225.5,304.5C 226.492,304.672 227.158,304.338 227.5,303.5C 227.833,303.5 228.167,303.5 228.5,303.5C 229.167,303.5 229.5,303.167 229.5,302.5C 232.167,302.167 232.167,301.833 229.5,301.5C 228.209,301.263 227.209,301.596 226.5,302.5C 225.209,302.263 224.209,302.596 223.5,303.5C 222.005,303.989 220.671,304.655 219.5,305.5C 200.756,310.173 181.756,311.839 162.5,310.5C 157.75,308.969 152.75,308.302 147.5,308.5C 88.5058,298.825 47.5058,266.492 24.5,211.5 Z M 223.5,303.5 C 224.492,303.328 225.158,303.662 225.5,304.5C 224.508,304.328 223.842,304.662 223.5,305.5C 222.167,305.5 220.833,305.5 219.5,305.5C 220.671,304.655 222.005,303.989 223.5,303.5 Z"/></g>
<g><path style="opacity:0.122" fill="#42362d" d="M 240.5,298.5 C 240.369,297.624 240.702,296.957 241.5,296.5C 246.167,294.167 250.833,291.833 255.5,289.5C 255.833,289.833 256.167,290.167 256.5,290.5C 251.118,293.191 245.785,295.858 240.5,298.5 Z"/></g>
<g><path style="opacity:0.827" fill="#79654a" d="M 144.5,286.5 C 155.146,287.312 165.813,287.646 176.5,287.5C 172.18,288.166 167.68,288.499 163,288.5C 156.586,288.711 150.419,288.045 144.5,286.5 Z"/></g>
<g><path style="opacity:0.941" fill="#897456" d="M 129.5,283.5 C 134.035,284.137 138.368,285.137 142.5,286.5C 138.466,286.328 134.466,285.828 130.5,285C 129.944,284.617 129.611,284.117 129.5,283.5 Z"/></g>
<g><path style="opacity:0.737" fill="#806c4f" d="M 207.5,282.5 C 205.485,283.924 203.152,284.59 200.5,284.5C 202.515,283.076 204.848,282.41 207.5,282.5 Z"/></g>
<g><path style="opacity:0.6" fill="#695438" d="M 196.5,279.5 C 194.969,280.925 195.302,281.591 197.5,281.5C 196.054,282.613 194.387,282.78 192.5,282C 193.471,280.519 194.804,279.685 196.5,279.5 Z"/></g>
<g><path style="opacity:1" fill="#967f5c" d="M 140.5,276.5 C 140.196,277.15 139.863,277.817 139.5,278.5C 141.631,279.169 143.631,279.835 145.5,280.5C 142.813,280.664 140.146,280.497 137.5,280C 136.61,277.693 137.61,276.527 140.5,276.5 Z"/></g>
<g><path style="opacity:0.588" fill="#5e503d" d="M 84.5,255.5 C 85.9063,255.973 86.573,256.973 86.5,258.5C 85.0937,258.027 84.427,257.027 84.5,255.5 Z"/></g>
<g><path style="opacity:0.396" fill="#635641" d="M 77.5,245.5 C 78.9063,245.973 79.573,246.973 79.5,248.5C 78.0937,248.027 77.427,247.027 77.5,245.5 Z"/></g>
<g><path style="opacity:1" fill="#937a4f" d="M 226.5,249.5 C 226.586,248.504 226.252,247.671 225.5,247C 223.866,246.506 222.199,246.34 220.5,246.5C 223.788,244.192 227.455,243.025 231.5,243C 229.97,245.352 228.303,247.519 226.5,249.5 Z"/></g>
<g><path style="opacity:1" fill="#a0885e" d="M 170.5,231.5 C 168.786,232.738 166.786,233.405 164.5,233.5C 165.398,238.957 164.064,243.624 160.5,247.5C 161.674,242.47 163.008,237.47 164.5,232.5C 166.409,231.652 168.409,231.318 170.5,231.5 Z"/></g>
<g><path style="opacity:0.6" fill="#78684f" d="M 65.5,231.5 C 66.905,233.225 67.405,235.225 67,237.5C 65.8797,235.97 65.0464,234.303 64.5,232.5C 65.1667,232.5 65.5,232.167 65.5,231.5 Z"/></g>
<g><path style="opacity:0.043" fill="#40372e" d="M 226.5,302.5 C 227.209,301.596 228.209,301.263 229.5,301.5C 229.5,301.833 229.5,302.167 229.5,302.5C 229.5,303.167 229.167,303.5 228.5,303.5C 228.158,302.662 227.492,302.328 226.5,302.5 Z"/></g>
<g><path style="opacity:0.016" fill="#322926" d="M 223.5,303.5 C 224.209,302.596 225.209,302.263 226.5,302.5C 226.5,303.167 226.833,303.5 227.5,303.5C 227.158,304.338 226.492,304.672 225.5,304.5C 225.158,303.662 224.492,303.328 223.5,303.5 Z"/></g>
<g><path style="opacity:1" fill="#9c8150" d="M 219.5,305.5 C 220.833,305.5 222.167,305.5 223.5,305.5C 221.097,306.091 219.764,307.258 219.5,309C 222.478,309.696 225.478,310.196 228.5,310.5C 224.784,312.405 220.784,313.739 216.5,314.5C 217.806,313.533 218.473,312.199 218.5,310.5C 215.402,310.587 215.068,310.087 217.5,309C 217,308.833 216.5,308.667 216,308.5C 212.384,310.256 208.551,310.923 204.5,310.5C 209.64,309.297 214.64,307.631 219.5,305.5 Z"/></g>
<g><path style="opacity:0.647" fill="#7b6d48" d="M 147.5,308.5 C 152.75,308.302 157.75,308.969 162.5,310.5C 157.269,310.556 152.269,309.889 147.5,308.5 Z"/></g>
<g><path style="opacity:0.765" fill="#625038" d="M 107.5,310.5 C 110.152,310.41 112.485,311.076 114.5,312.5C 111.848,312.59 109.515,311.924 107.5,310.5 Z"/></g>
<g><path style="opacity:0.82" fill="#705b3d" d="M 114.5,312.5 C 117.152,312.41 119.485,313.076 121.5,314.5C 118.848,314.59 116.515,313.924 114.5,312.5 Z"/></g>
<g><path style="opacity:1" fill="#ac9056" d="M 216.5,314.5 C 215.081,315.451 213.415,315.784 211.5,315.5C 208.383,315.872 205.383,315.872 202.5,315.5C 201.452,316.548 200.452,317.548 199.5,318.5C 193.044,319.571 186.711,320.571 180.5,321.5C 173.167,321.5 165.833,321.5 158.5,321.5C 148.191,320.349 137.858,318.682 127.5,316.5C 126.909,315.849 126.243,315.182 125.5,314.5C 127.75,312.202 130.416,311.369 133.5,312C 132.304,312.654 132.304,313.154 133.5,313.5C 136.084,312.607 138.751,312.274 141.5,312.5C 162.618,315.434 183.618,314.767 204.5,310.5C 208.551,310.923 212.384,310.256 216,308.5C 216.5,308.667 217,308.833 217.5,309C 215.068,310.087 215.402,310.587 218.5,310.5C 218.473,312.199 217.806,313.533 216.5,314.5 Z"/></g>
<g><path style="opacity:0.949" fill="#856d47" d="M 211.5,315.5 C 207.774,317.13 203.774,318.13 199.5,318.5C 200.452,317.548 201.452,316.548 202.5,315.5C 205.383,315.872 208.383,315.872 211.5,315.5 Z"/></g>
</svg>
